<svg width="514" height="83" viewBox="0 0 514 83" fill="none" xmlns="http://www.w3.org/2000/svg">
<path d="M61 21.54L80.5 41.04L61 60.54L73 72.54L104.5 41.04L73 9.54001L61 21.54Z" fill="#333333" stroke="#333333"/>
<path d="M44.5 21.54L25 41.04L44.5 60.54L32.5 72.54L1 41.04L32.5 9.54001L44.5 21.54Z" fill="#333333" stroke="#333333"/>
<path d="M146.746 0C148.728 0 150.55 0.224176 152.212 0.672528C153.907 1.12088 155.377 1.75604 156.624 2.57802C157.903 3.37509 158.941 4.34652 159.741 5.49231C160.319 6.30394 160.739 7.18741 160.999 8.14271C161.158 8.72783 160.687 9.26593 160.08 9.26593H154.859C154.38 9.26593 153.981 8.9202 153.805 8.47471C153.429 7.52079 152.722 6.73838 151.685 6.12747C150.406 5.3304 148.808 4.93187 146.89 4.93187C144.204 4.93187 142.047 5.70403 140.416 7.24835C138.818 8.79267 138.019 10.8601 138.019 13.4505C138.019 14.7209 138.226 15.8791 138.642 16.9253C139.058 17.9714 139.633 18.8681 140.368 19.6154C141.135 20.3626 142.063 20.948 143.149 21.3714C144.236 21.77 145.451 21.9692 146.794 21.9692C148.712 21.9692 150.342 21.5832 151.685 20.811C152.773 20.1798 153.511 19.3846 153.898 18.4254C154.077 17.9812 154.476 17.6352 154.955 17.6352H160.202C160.799 17.6352 161.269 18.1582 161.124 18.7377C160.881 19.7069 160.468 20.6097 159.884 21.4462C159.117 22.567 158.078 23.5385 156.768 24.3604C155.489 25.1575 153.986 25.7802 152.26 26.2286C150.534 26.6769 148.664 26.9011 146.65 26.9011C144.22 26.9011 142.015 26.5773 140.033 25.9297C138.051 25.2821 136.356 24.3729 134.95 23.2022C133.543 22.0066 132.456 20.5868 131.689 18.9429C130.954 17.2989 130.586 15.4806 130.586 13.4879C130.586 11.4454 130.97 9.6022 131.737 7.95824C132.536 6.28938 133.639 4.8696 135.046 3.6989C136.484 2.5033 138.194 1.59414 140.176 0.971429C142.158 0.32381 144.348 0 146.746 0Z" fill="#333333"/>
<path d="M183.624 7.84616C184.177 7.84616 184.624 8.29387 184.624 8.84616V11.8527C184.624 12.405 184.177 12.8527 183.624 12.8527H178.432C177.879 12.8527 177.432 13.3005 177.432 13.8527V25.5275C177.432 26.0798 176.984 26.5275 176.432 26.5275H171.431C170.879 26.5275 170.431 26.0798 170.431 25.5275V13.8527C170.431 13.3005 169.983 12.8527 169.431 12.8527H164.238C163.686 12.8527 163.238 12.405 163.238 11.8527V8.84616C163.238 8.29387 163.686 7.84616 164.238 7.84616H183.624Z" fill="#333333"/>
<path d="M186.774 8.66813V8.66813C186.774 8.21417 187.142 7.84616 187.596 7.84616H193.144C193.598 7.84616 193.966 8.21417 193.966 8.66813V8.66813C193.966 10.5363 194.27 12.3919 194.877 14.2352C195.517 16.0535 196.252 17.7348 197.083 19.2791L198.717 22.3702C198.744 22.4223 198.798 22.4549 198.857 22.4549V22.4549C198.916 22.4549 198.971 22.4223 198.998 22.3702L200.632 19.2791C201.463 17.7348 202.182 16.0535 202.789 14.2352C203.429 12.3919 203.748 10.5363 203.748 8.66813V8.66813C203.748 8.21417 204.116 7.84616 204.57 7.84616H209.831C210.285 7.84616 210.653 8.21417 210.653 8.66813V8.66813C210.653 10.9348 210.206 13.2015 209.311 15.4681C208.448 17.7099 207.489 19.7648 206.434 21.633L199.815 33.4875C199.638 33.8039 199.304 34 198.942 34H192.02C191.956 34 191.904 33.9484 191.904 33.8847V33.8847C191.904 33.8624 191.911 33.8406 191.923 33.8219L195.651 28.0714C196.082 27.4061 195.605 26.5275 194.812 26.5275H194.314C193.951 26.5275 193.617 26.3314 193.44 26.015L190.993 21.633C189.938 19.7648 188.963 17.7099 188.068 15.4681C187.205 13.2015 186.774 10.9348 186.774 8.66813Z" fill="#333333"/>
<path d="M212.371 22.6703C212.371 22.118 212.819 21.6703 213.371 21.6703H214.05C215.169 21.6703 215.888 21.4711 216.208 21.0725C216.527 20.6491 216.719 20.1509 216.783 19.578L217.935 8.74048C217.989 8.23197 218.418 7.84616 218.929 7.84616H235.491C236.043 7.84616 236.491 8.29387 236.491 8.84616V20.6703C236.491 21.2226 236.939 21.6703 237.491 21.6703H239.327C239.879 21.6703 240.327 22.118 240.327 22.6703V30.3846C240.327 30.9369 239.879 31.3846 239.327 31.3846H234.712C234.198 31.3846 233.767 30.9946 233.717 30.4829L233.415 27.4292C233.365 26.9175 232.934 26.5275 232.42 26.5275H220.278C219.764 26.5275 219.334 26.9175 219.283 27.4292L218.982 30.4829C218.931 30.9946 218.501 31.3846 217.987 31.3846H213.371C212.819 31.3846 212.371 30.9369 212.371 30.3846V22.6703ZM228.49 21.6703C229.042 21.6703 229.49 21.2226 229.49 20.6703V13.7033C229.49 13.151 229.042 12.7033 228.49 12.7033H225.162C224.651 12.7033 224.222 13.0887 224.168 13.597L223.592 18.9802C223.528 19.6777 223.384 20.2381 223.16 20.6615V20.6615C222.975 21.0472 223.226 21.6703 223.654 21.6703H228.49Z" fill="#333333"/>
<path d="M241.054 17.1495C241.054 15.6799 241.342 14.3473 241.917 13.1516C242.525 11.956 243.372 10.9473 244.459 10.1253C245.546 9.27839 246.84 8.63077 248.343 8.18242C249.845 7.70916 251.508 7.47253 253.33 7.47253C255.088 7.47253 256.67 7.68425 258.077 8.10769C259.484 8.53114 260.682 9.12894 261.673 9.9011C262.696 10.6733 263.48 11.6073 264.023 12.7033C264.566 13.7744 264.838 14.9824 264.838 16.3275C264.838 16.6938 264.816 17.0687 264.772 17.4523C264.717 17.9294 264.299 18.2703 263.819 18.2703H249.085C248.453 18.2703 247.972 18.8561 248.228 19.4337C248.554 20.1731 249.04 20.7941 249.686 21.2967C250.676 22.044 251.923 22.4176 253.426 22.4176C254.609 22.4176 255.615 22.181 256.447 21.7077C257.002 21.3917 257.414 21.009 257.684 20.5598C257.921 20.166 258.304 19.8396 258.763 19.8396H263.818C264.43 19.8396 264.904 20.3902 264.699 20.9672C264.479 21.5848 264.158 22.1679 263.735 22.7165C263.096 23.5883 262.265 24.3355 261.242 24.9582C260.219 25.581 259.02 26.0667 257.645 26.4154C256.303 26.7392 254.848 26.9011 253.282 26.9011C251.428 26.9011 249.749 26.6645 248.247 26.1912C246.744 25.718 245.45 25.0579 244.363 24.211C243.308 23.3392 242.493 22.3055 241.917 21.1099C241.342 19.9143 241.054 18.5941 241.054 17.1495ZM249.195 13.2223C248.687 13.7582 249.154 14.5341 249.892 14.5341H256.776C257.386 14.5341 257.864 13.9722 257.545 13.4523C257.301 13.0543 256.951 12.705 256.495 12.4044C255.695 11.8564 254.672 11.5824 253.426 11.5824C252.211 11.5824 251.156 11.844 250.261 12.367C249.861 12.6093 249.506 12.8944 249.195 13.2223Z" fill="#333333"/>
<path d="M272.292 26.5275C271.74 26.5275 271.292 26.0798 271.292 25.5275V8.84615C271.292 8.29387 271.74 7.84616 272.292 7.84616H277.293C277.845 7.84616 278.293 8.29387 278.293 8.84616V13.3473C278.293 13.8995 278.741 14.3473 279.293 14.3473H286.596C287.148 14.3473 287.596 13.8995 287.596 13.3473V8.84616C287.596 8.29387 288.043 7.84616 288.596 7.84616H293.596C294.149 7.84616 294.596 8.29387 294.596 8.84616V25.5275C294.596 26.0798 294.149 26.5275 293.596 26.5275H288.596C288.043 26.5275 287.596 26.0798 287.596 25.5275V20.2044C287.596 19.6521 287.148 19.2044 286.596 19.2044H279.293C278.741 19.2044 278.293 19.6521 278.293 20.2044V25.5275C278.293 26.0798 277.845 26.5275 277.293 26.5275H272.292Z" fill="#333333"/>
<path d="M299.961 8.84615C299.961 8.29387 300.409 7.84616 300.961 7.84616H305.962C306.515 7.84616 306.962 8.29387 306.962 8.84616V13.3758C306.962 14.5216 307.282 15.4308 307.921 16.1033C308.561 16.7509 309.552 17.0747 310.894 17.0747C312.045 17.0747 313.068 16.8132 313.963 16.2901C314.858 15.767 315.306 15.0571 315.306 14.1604V8.84615C315.306 8.29387 315.754 7.84616 316.306 7.84616H321.307C321.859 7.84616 322.307 8.29387 322.307 8.84616V25.5275C322.307 26.0798 321.859 26.5275 321.307 26.5275H316.306C315.754 26.5275 315.306 26.0798 315.306 25.5275V22.0239C315.306 21.2218 314.375 20.7015 313.62 20.9711C313.278 21.0931 312.913 21.2017 312.525 21.2967C311.438 21.5458 310.287 21.6703 309.072 21.6703C306.003 21.6703 303.718 20.9355 302.215 19.4659C300.713 17.9714 299.961 15.9912 299.961 13.5253V8.84615Z" fill="#333333"/>
<path d="M325.765 17.1495C325.765 15.6799 326.053 14.3473 326.628 13.1516C327.236 11.956 328.083 10.9473 329.17 10.1253C330.257 9.27839 331.551 8.63077 333.054 8.18242C334.556 7.70916 336.219 7.47253 338.041 7.47253C339.799 7.47253 341.381 7.68425 342.788 8.10769C344.195 8.53114 345.393 9.12894 346.384 9.9011C347.407 10.6733 348.191 11.6073 348.734 12.7033C349.277 13.7744 349.549 14.9824 349.549 16.3275C349.549 16.6938 349.527 17.0687 349.483 17.4523C349.428 17.9294 349.01 18.2703 348.53 18.2703H333.796C333.164 18.2703 332.683 18.8561 332.939 19.4337C333.265 20.1731 333.751 20.7941 334.397 21.2967C335.388 22.044 336.634 22.4176 338.137 22.4176C339.32 22.4176 340.327 22.181 341.158 21.7077C341.713 21.3917 342.125 21.009 342.395 20.5598C342.632 20.166 343.015 19.8396 343.474 19.8396H348.529C349.141 19.8396 349.615 20.3902 349.41 20.9672C349.19 21.5848 348.869 22.1679 348.446 22.7165C347.807 23.5883 346.976 24.3355 345.953 24.9582C344.93 25.581 343.731 26.0667 342.356 26.4154C341.014 26.7392 339.559 26.9011 337.993 26.9011C336.139 26.9011 334.46 26.6645 332.958 26.1912C331.456 25.718 330.161 25.0579 329.074 24.211C328.019 23.3392 327.204 22.3055 326.628 21.1099C326.053 19.9143 325.765 18.5941 325.765 17.1495ZM333.906 13.2223C333.398 13.7582 333.865 14.5341 334.603 14.5341H341.487C342.097 14.5341 342.575 13.9722 342.256 13.4523C342.012 13.0543 341.662 12.705 341.206 12.4044C340.406 11.8564 339.383 11.5824 338.137 11.5824C336.922 11.5824 335.867 11.844 334.972 12.367C334.572 12.6093 334.217 12.8944 333.906 13.2223Z" fill="#333333"/>
<path d="M364.874 7.47253C366.473 7.47253 367.927 7.65934 369.238 8.03297C370.58 8.38168 371.747 8.87985 372.738 9.52747C373.729 10.1751 374.528 10.9597 375.136 11.8813C375.538 12.4746 375.835 13.1171 376.027 13.8085C376.186 14.384 375.715 14.9077 375.118 14.9077H370.02C369.56 14.9077 369.177 14.5819 368.945 14.1855C368.682 13.7371 368.284 13.3551 367.751 13.0396C366.984 12.5663 366.041 12.3297 364.922 12.3297C363.388 12.3297 362.141 12.7656 361.182 13.6374C360.223 14.4842 359.743 15.6549 359.743 17.1495C359.743 18.5941 360.207 19.7773 361.134 20.6989C362.061 21.5956 363.324 22.044 364.922 22.044C366.073 22.044 367.064 21.8073 367.895 21.3341C368.472 21.0176 368.899 20.6343 369.176 20.1842C369.417 19.7929 369.8 19.4659 370.259 19.4659H375.293C375.912 19.4659 376.387 20.0273 376.192 20.6153C375.965 21.2951 375.645 21.9333 375.232 22.5297C374.592 23.4264 373.745 24.1985 372.69 24.8462C371.667 25.4938 370.484 26.0044 369.142 26.378C367.799 26.7267 366.329 26.9011 364.73 26.9011C362.908 26.9011 361.246 26.6645 359.743 26.1912C358.241 25.718 356.946 25.0579 355.859 24.211C354.804 23.3392 353.989 22.3179 353.414 21.1473C352.838 19.9516 352.551 18.6315 352.551 17.1868C352.551 15.7172 352.854 14.3846 353.462 13.189C354.069 11.9934 354.916 10.9722 356.003 10.1253C357.09 9.27839 358.385 8.63077 359.887 8.18242C361.39 7.70916 363.052 7.47253 364.874 7.47253Z" fill="#333333"/>
<path d="M383.554 26.5275C383.002 26.5275 382.554 26.0798 382.554 25.5275V8.84615C382.554 8.29387 383.002 7.84616 383.554 7.84616H388.555C389.108 7.84616 389.555 8.29387 389.555 8.84616V13.3473C389.555 13.8995 390.003 14.3473 390.555 14.3473H390.626C390.892 14.3473 391.147 14.2413 391.335 14.0529L397.222 8.14056C397.41 7.9521 397.665 7.84616 397.931 7.84616H405.562C405.62 7.84616 405.667 7.89319 405.667 7.95121V7.95121C405.667 7.97959 405.655 8.00677 405.635 8.02655L397.965 15.4798C397.6 15.8348 397.56 16.4077 397.872 16.8101L398.57 17.7099C398.922 18.1582 399.289 18.619 399.673 19.0923C400.089 19.5407 400.536 19.9641 401.016 20.3626C401.527 20.7612 402.087 21.085 402.694 21.3341C403.301 21.5832 403.973 21.7077 404.708 21.7077V21.7077C405.218 21.7077 405.667 22.0853 405.667 22.5955V25.826C405.667 26.2999 405.335 26.7146 404.864 26.7714C404.652 26.797 404.44 26.8154 404.228 26.8264C403.781 26.8762 403.349 26.9011 402.934 26.9011C401.559 26.9011 400.344 26.7018 399.289 26.3033C398.266 25.9048 397.323 25.3692 396.46 24.6967C395.629 24.0242 394.878 23.2645 394.207 22.4176C393.535 21.5458 392.864 20.6491 392.193 19.7275L392.109 19.613C391.92 19.3561 391.621 19.2044 391.302 19.2044H390.555C390.003 19.2044 389.555 19.6521 389.555 20.2044V25.5275C389.555 26.0798 389.108 26.5275 388.555 26.5275H383.554Z" fill="#333333"/>
<path d="M408.543 21.2593C408.543 19.5407 409.342 18.1707 410.941 17.1495C412.571 16.1282 414.713 15.6176 417.366 15.6176H422.648C423.2 15.6176 423.648 15.1699 423.648 14.6176V13.8615C423.648 13.0645 423.312 12.4418 422.641 11.9934C421.97 11.5201 421.059 11.2835 419.908 11.2835C418.565 11.2835 417.574 11.57 416.935 12.1429C416.549 12.4888 416.268 12.8755 416.091 13.3032C415.893 13.7851 415.478 14.1978 414.957 14.1978H410.524C409.945 14.1978 409.479 13.7033 409.625 13.1432C409.77 12.5866 410.001 12.0539 410.317 11.5451C410.861 10.7231 411.596 10.0132 412.523 9.41538C413.45 8.81758 414.553 8.34432 415.832 7.99561C417.111 7.64689 418.549 7.47253 420.148 7.47253C421.682 7.47253 423.089 7.63443 424.367 7.95824C425.646 8.28205 426.749 8.74286 427.676 9.34066C428.603 9.93846 429.322 10.6733 429.834 11.5451C430.377 12.3919 430.649 13.3509 430.649 14.422V25.5275C430.649 26.0798 430.201 26.5275 429.649 26.5275H424.932C424.605 26.5275 424.324 26.2937 424.265 25.9718V25.9718C424.147 25.3252 423.024 25.0608 422.473 25.4203C422.109 25.6583 421.685 25.8779 421.202 26.0791C419.828 26.6271 418.277 26.9011 416.551 26.9011C414.122 26.9011 412.172 26.378 410.701 25.3319C409.263 24.2608 408.543 22.9033 408.543 21.2593ZM415.736 21.1099C415.736 21.7077 415.992 22.1934 416.503 22.567C417.015 22.9407 417.766 23.1275 418.757 23.1275C420.259 23.1275 421.442 22.7289 422.305 21.9319C422.912 21.354 423.314 20.6837 423.51 19.9211C423.65 19.3761 423.184 18.9055 422.621 18.9055H418.949C417.926 18.9055 417.127 19.1172 416.551 19.5407C416.008 19.9392 415.736 20.4623 415.736 21.1099Z" fill="#333333"/>
<path d="M436.001 22.3815C436.001 21.9548 436.391 21.6335 436.816 21.6703V21.6703C437.104 21.6952 437.376 21.7077 437.631 21.7077C438.495 21.7077 439.294 21.5956 440.029 21.3714C440.285 21.2882 440.524 21.1868 440.745 21.0674C441.362 20.7336 441.128 19.9177 440.488 19.631C439.473 19.1764 438.617 18.5983 437.919 17.8967C436.96 16.9004 436.481 15.6923 436.481 14.2725C436.481 13.326 436.704 12.4667 437.152 11.6945C437.599 10.8974 438.223 10.2249 439.022 9.67692C439.821 9.10403 440.78 8.65568 441.899 8.33187C443.05 8.00806 444.313 7.84616 445.687 7.84616H457.586C458.138 7.84616 458.586 8.29387 458.586 8.84616V25.6396C458.586 26.1918 458.138 26.6396 457.586 26.6396H452.585C452.033 26.6396 451.585 26.1918 451.585 25.6396V21.7736C451.585 21.2213 451.138 20.7736 450.585 20.7736H449.908C449.577 20.7736 449.268 20.9369 449.082 21.2098L448.181 22.5297C447.158 23.9993 445.895 25.0952 444.393 25.8176C442.89 26.5399 441.18 26.9011 439.262 26.9011C438.462 26.9011 437.644 26.8367 436.808 26.7079C436.337 26.6354 436.001 26.2219 436.001 25.7453V22.3815ZM446.023 16.0659H450.585C451.138 16.0659 451.585 15.6182 451.585 15.0659V13.5538C451.585 13.0016 451.138 12.5538 450.585 12.5538H446.023C445.288 12.5538 444.712 12.7158 444.297 13.0396C443.881 13.3634 443.673 13.7868 443.673 14.3099C443.673 14.833 443.881 15.2564 444.297 15.5802C444.712 15.904 445.288 16.0659 446.023 16.0659Z" fill="#333333"/>
<path d="M136.696 49.1768C137.248 49.1768 137.696 49.6245 137.696 50.1768V61.8371C137.696 62.6678 138.65 63.1363 139.307 62.6284L151.123 53.4985C151.368 53.3092 151.512 53.0169 151.512 52.7072V50.1768C151.512 49.6245 151.96 49.1768 152.512 49.1768H157.708C158.26 49.1768 158.708 49.6245 158.708 50.1768V73.7682C158.708 74.3205 158.26 74.7682 157.708 74.7682H152.512C151.96 74.7682 151.512 74.3205 151.512 73.7682V62.1086C151.512 61.2778 150.557 60.8093 149.9 61.3175L141.63 67.7123C140.926 68.2485 140.318 68.7603 139.807 69.2477C139.295 69.7352 138.879 70.247 138.559 70.7832C138.271 71.2951 138.048 71.8678 137.888 72.5015C137.811 72.8804 137.758 73.3028 137.727 73.7688C137.69 74.3199 137.248 74.7682 136.696 74.7682H131.5C130.948 74.7682 130.5 74.3205 130.5 73.7682V50.1768C130.5 49.6245 130.948 49.1768 131.5 49.1768H136.696Z" fill="#333333"/>
<path d="M188.503 49.1768C189.056 49.1768 189.503 49.6245 189.503 50.1768V53.2951C189.503 53.8473 189.056 54.2951 188.503 54.2951H180.909C180.357 54.2951 179.909 54.7428 179.909 55.2951V73.7682C179.909 74.3205 179.461 74.7682 178.909 74.7682H173.713C173.161 74.7682 172.713 74.3205 172.713 73.7682V55.2951C172.713 54.7428 172.265 54.2951 171.713 54.2951H164.119C163.567 54.2951 163.119 53.8473 163.119 53.2951V50.1768C163.119 49.6245 163.567 49.1768 164.119 49.1768H188.503Z" fill="#333333"/>
<path d="M193.515 66.1402C192.963 66.1402 192.515 65.6925 192.515 65.1402V62.4606C192.515 61.9084 192.963 61.4606 193.515 61.4606H205.907C206.459 61.4606 206.907 61.9084 206.907 62.4606V65.1402C206.907 65.6925 206.459 66.1402 205.907 66.1402H193.515Z" fill="#333333"/>
<path d="M212.152 74.9063C211.677 74.8364 211.336 74.4208 211.336 73.9407V70.8441C211.336 70.4182 211.731 70.0975 212.152 70.1617V70.1617C212.472 70.1861 212.792 70.1983 213.111 70.1983C213.719 70.1983 214.279 70.0886 214.79 69.8693C215.334 69.6255 215.638 69.1503 215.702 68.4434L216.9 57.3809C216.955 56.8733 217.384 56.4886 217.895 56.4886H234.946C235.498 56.4886 235.946 56.9363 235.946 57.4886V73.7682C235.946 74.3205 235.498 74.7682 234.946 74.7682H229.942C229.39 74.7682 228.942 74.3205 228.942 73.7682V62.2413C228.942 61.689 228.494 61.2413 227.942 61.2413H224.131C223.62 61.2413 223.192 61.6257 223.136 62.1331L222.322 69.6133C222.098 71.5875 221.299 73.0011 219.923 73.8542C218.58 74.7072 216.901 75.1338 214.886 75.1338C214.343 75.1338 213.767 75.0972 213.159 75.0241C212.834 74.9965 212.498 74.9573 212.152 74.9063Z" fill="#333333"/>
<path d="M240.862 69.6133C240.862 67.9316 241.661 66.5911 243.26 65.5918C244.891 64.5925 247.034 64.0929 249.689 64.0929H254.973C255.525 64.0929 255.973 63.6452 255.973 63.0929V62.3746C255.973 61.5947 255.637 60.9854 254.966 60.5467C254.294 60.0836 253.382 59.852 252.231 59.852C250.888 59.852 249.896 60.1323 249.257 60.6929C248.875 61.0272 248.596 61.4004 248.42 61.8127C248.215 62.2911 247.801 62.7037 247.28 62.7037H242.845C242.265 62.7037 241.798 62.2078 241.95 61.6486C242.095 61.1124 242.324 60.5988 242.637 60.108C243.18 59.3037 243.916 58.609 244.843 58.0241C245.771 57.4391 246.874 56.9761 248.153 56.6348C249.433 56.2936 250.872 56.123 252.471 56.123C254.006 56.123 255.413 56.2814 256.693 56.5983C257.972 56.9151 259.075 57.366 260.003 57.951C260.93 58.5359 261.65 59.2549 262.161 60.108C262.705 60.9366 262.977 61.875 262.977 62.923V73.7682C262.977 74.3205 262.529 74.7682 261.977 74.7682H257.253C256.928 74.7682 256.649 74.5366 256.589 74.217V74.217C256.469 73.5772 255.368 73.3167 254.821 73.6697C254.451 73.9085 254.02 74.1284 253.526 74.3295C252.151 74.8657 250.6 75.1338 248.873 75.1338C246.442 75.1338 244.492 74.6219 243.02 73.5983C241.581 72.5503 240.862 71.2219 240.862 69.6133ZM248.058 69.4671C248.058 70.052 248.313 70.5273 248.825 70.8929C249.337 71.2585 250.088 71.4413 251.08 71.4413C252.583 71.4413 253.766 71.0513 254.63 70.2714C255.231 69.7113 255.631 69.0627 255.829 68.3253C255.975 67.7816 255.508 67.3101 254.945 67.3101H251.272C250.248 67.3101 249.449 67.5173 248.873 67.9316C248.329 68.3216 248.058 68.8334 248.058 69.4671Z" fill="#333333"/>
<path d="M268.092 65.5553C268.092 64.0929 268.395 62.789 269.003 61.6434C269.452 60.8221 270.019 60.0848 270.705 59.4317C271.163 58.9955 271.195 58.253 270.798 57.7605C269.953 56.7103 269.531 55.5429 269.531 54.2585C269.531 53.2105 269.803 52.2965 270.346 51.5166C270.89 50.7366 271.609 50.0908 272.505 49.5789C273.432 49.0671 274.488 48.6893 275.671 48.4456C276.854 48.2019 278.07 48.08 279.317 48.08H289.83C290.383 48.08 290.83 48.5277 290.83 49.08V52.1983C290.83 52.7506 290.383 53.1983 289.83 53.1983H279.269C278.054 53.1983 277.174 53.4054 276.631 53.8198C276.087 54.2341 275.815 54.685 275.815 55.1725C275.815 55.4972 275.907 55.8112 276.092 56.1143C276.275 56.4148 276.648 56.5127 276.994 56.4477C278.145 56.2312 279.367 56.123 280.66 56.123C282.547 56.123 284.258 56.3546 285.793 56.8176C287.328 57.2563 288.64 57.89 289.727 58.7187C290.846 59.523 291.71 60.5101 292.317 61.68C292.925 62.8255 293.229 64.1173 293.229 65.5553C293.229 66.9689 292.925 68.2728 292.317 69.4671C291.71 70.637 290.846 71.6485 289.727 72.5015C288.64 73.3302 287.328 73.9761 285.793 74.4391C284.258 74.9022 282.547 75.1338 280.66 75.1338C278.773 75.1338 277.062 74.9022 275.527 74.4391C273.992 73.9761 272.665 73.3302 271.546 72.5015C270.458 71.6485 269.611 70.637 269.003 69.4671C268.395 68.2728 268.092 66.9689 268.092 65.5553ZM280.66 70.5639C282.355 70.5639 283.666 70.113 284.594 69.2112C285.553 68.3094 286.033 67.0908 286.033 65.5553C286.033 64.0198 285.553 62.8255 284.594 61.9725C283.666 61.1194 282.355 60.6929 280.66 60.6929C278.965 60.6929 277.638 61.1194 276.679 61.9725C275.751 62.8255 275.287 64.0198 275.287 65.5553C275.287 67.0908 275.751 68.3094 276.679 69.2112C277.638 70.113 278.965 70.5639 280.66 70.5639Z" fill="#333333"/>
<path d="M308.664 56.123C310.551 56.123 312.262 56.3546 313.797 56.8176C315.332 57.2563 316.643 57.89 317.731 58.7187C318.85 59.523 319.714 60.5101 320.321 61.68C320.929 62.8255 321.233 64.1173 321.233 65.5553C321.233 66.9689 320.929 68.2728 320.321 69.4671C319.714 70.637 318.85 71.6485 317.731 72.5015C316.643 73.3302 315.332 73.9761 313.797 74.4391C312.262 74.9022 310.551 75.1338 308.664 75.1338C306.777 75.1338 305.066 74.9022 303.531 74.4391C301.996 73.9761 300.669 73.3302 299.549 72.5015C298.462 71.6485 297.614 70.637 297.007 69.4671C296.399 68.2728 296.095 66.9689 296.095 65.5553C296.095 64.1173 296.399 62.8255 297.007 61.68C297.614 60.5101 298.462 59.523 299.549 58.7187C300.669 57.89 301.996 57.2563 303.531 56.8176C305.066 56.3546 306.777 56.123 308.664 56.123ZM303.291 65.5553C303.291 67.0908 303.755 68.3094 304.682 69.2112C305.642 70.0886 306.969 70.5273 308.664 70.5273C310.359 70.5273 311.67 70.0886 312.598 69.2112C313.557 68.3094 314.037 67.0908 314.037 65.5553C314.037 64.0198 313.557 62.8377 312.598 62.009C311.67 61.156 310.359 60.7295 308.664 60.7295C306.969 60.7295 305.642 61.156 304.682 62.009C303.755 62.8377 303.291 64.0198 303.291 65.5553Z" fill="#333333"/>
<path d="M327.125 82.08C326.573 82.08 326.125 81.6323 326.125 81.08V57.4886C326.125 56.9363 326.573 56.4886 327.125 56.4886H331.766C332.145 56.4886 332.478 56.7436 332.576 57.1102V57.1102C332.727 57.676 333.399 57.9166 333.909 57.6283C334.667 57.1998 335.462 56.8687 336.295 56.6348C337.51 56.2936 338.774 56.123 340.085 56.123C341.652 56.123 343.075 56.3546 344.354 56.8176C345.634 57.2563 346.737 57.89 347.665 58.7187C348.592 59.5474 349.312 60.5345 349.823 61.68C350.335 62.8012 350.591 64.0563 350.591 65.4456C350.591 66.7617 350.351 68.0047 349.871 69.1746C349.424 70.3445 348.736 71.3682 347.808 72.2456C346.913 73.123 345.81 73.8298 344.498 74.366C343.187 74.8779 341.668 75.1338 339.941 75.1338C338.534 75.1338 337.239 74.951 336.055 74.5854C335.751 74.4852 335.461 74.3705 335.184 74.2414C334.36 73.8566 333.129 74.3992 333.129 75.3087V81.08C333.129 81.6323 332.681 82.08 332.129 82.08H327.125ZM337.926 70.5639C339.621 70.5639 340.948 70.1252 341.908 69.2477C342.899 68.3703 343.395 67.1639 343.395 65.6284C343.395 64.0929 342.915 62.8865 341.956 62.009C341.028 61.1316 339.749 60.6929 338.118 60.6929C336.455 60.6929 335.128 61.1438 334.136 62.0456C333.145 62.9474 332.649 64.166 332.649 65.7015C332.649 67.1151 333.097 68.285 333.992 69.2112C334.888 70.113 336.199 70.5639 337.926 70.5639Z" fill="#333333"/>
<path d="M353.484 69.6133C353.484 67.9316 354.283 66.5911 355.882 65.5918C357.513 64.5925 359.656 64.0929 362.311 64.0929H367.595C368.147 64.0929 368.595 63.6452 368.595 63.0929V62.3746C368.595 61.5947 368.259 60.9854 367.588 60.5467C366.916 60.0836 366.004 59.852 364.853 59.852C363.51 59.852 362.519 60.1323 361.879 60.6929C361.497 61.0272 361.218 61.4004 361.042 61.8127C360.837 62.2911 360.423 62.7037 359.902 62.7037H355.467C354.887 62.7037 354.42 62.2078 354.572 61.6486C354.718 61.1124 354.946 60.5988 355.259 60.108C355.802 59.3037 356.538 58.609 357.465 58.0241C358.393 57.4391 359.496 56.9761 360.776 56.6348C362.055 56.2936 363.494 56.123 365.093 56.123C366.628 56.123 368.035 56.2814 369.315 56.5983C370.594 56.9151 371.697 57.366 372.625 57.951C373.552 58.5359 374.272 59.2549 374.783 60.108C375.327 60.9366 375.599 61.875 375.599 62.923V73.7682C375.599 74.3205 375.151 74.7682 374.599 74.7682H369.875C369.55 74.7682 369.271 74.5366 369.211 74.217V74.217C369.091 73.5772 367.99 73.3167 367.443 73.6697C367.073 73.9085 366.642 74.1284 366.148 74.3295C364.773 74.8657 363.222 75.1338 361.495 75.1338C359.065 75.1338 357.114 74.6219 355.643 73.5983C354.203 72.5503 353.484 71.2219 353.484 69.6133ZM360.68 69.4671C360.68 70.052 360.935 70.5273 361.447 70.8929C361.959 71.2585 362.71 71.4413 363.702 71.4413C365.205 71.4413 366.388 71.0513 367.252 70.2714C367.853 69.7113 368.253 69.0627 368.451 68.3253C368.597 67.7816 368.13 67.3101 367.567 67.3101H363.894C362.87 67.3101 362.071 67.5173 361.495 67.9316C360.951 68.3216 360.68 68.8334 360.68 69.4671Z" fill="#333333"/>
<path d="M399.67 56.4886C400.222 56.4886 400.67 56.9363 400.67 57.4886V60.3875C400.67 60.9398 400.222 61.3875 399.67 61.3875H394.474C393.922 61.3875 393.474 61.8352 393.474 62.3875V73.7682C393.474 74.3205 393.026 74.7682 392.474 74.7682H387.47C386.918 74.7682 386.47 74.3205 386.47 73.7682V62.3875C386.47 61.8352 386.022 61.3875 385.47 61.3875H380.274C379.722 61.3875 379.274 60.9398 379.274 60.3875V57.4886C379.274 56.9363 379.722 56.4886 380.274 56.4886H399.67Z" fill="#333333"/>
<path d="M415.149 56.123C417.036 56.123 418.747 56.3546 420.282 56.8176C421.817 57.2563 423.128 57.89 424.216 58.7187C425.335 59.523 426.198 60.5101 426.806 61.68C427.414 62.8255 427.718 64.1173 427.718 65.5553C427.718 66.9689 427.414 68.2728 426.806 69.4671C426.198 70.637 425.335 71.6485 424.216 72.5015C423.128 73.3302 421.817 73.9761 420.282 74.4391C418.747 74.9022 417.036 75.1338 415.149 75.1338C413.262 75.1338 411.551 74.9022 410.016 74.4391C408.481 73.9761 407.154 73.3302 406.034 72.5015C404.947 71.6485 404.099 70.637 403.492 69.4671C402.884 68.2728 402.58 66.9689 402.58 65.5553C402.58 64.1173 402.884 62.8255 403.492 61.68C404.099 60.5101 404.947 59.523 406.034 58.7187C407.154 57.89 408.481 57.2563 410.016 56.8176C411.551 56.3546 413.262 56.123 415.149 56.123ZM409.776 65.5553C409.776 67.0908 410.24 68.3094 411.167 69.2112C412.127 70.0886 413.454 70.5273 415.149 70.5273C416.844 70.5273 418.155 70.0886 419.083 69.2112C420.042 68.3094 420.522 67.0908 420.522 65.5553C420.522 64.0198 420.042 62.8377 419.083 62.009C418.155 61.156 416.844 60.7295 415.149 60.7295C413.454 60.7295 412.127 61.156 411.167 62.009C410.24 62.8377 409.776 64.0198 409.776 65.5553Z" fill="#333333"/>
<path d="M433.61 82.08C433.058 82.08 432.61 81.6323 432.61 81.08V57.4886C432.61 56.9363 433.058 56.4886 433.61 56.4886H438.251C438.63 56.4886 438.963 56.7436 439.061 57.1102V57.1102C439.212 57.676 439.884 57.9166 440.394 57.6283C441.152 57.1998 441.947 56.8687 442.78 56.6348C443.995 56.2936 445.259 56.123 446.57 56.123C448.137 56.123 449.56 56.3546 450.839 56.8176C452.119 57.2563 453.222 57.89 454.149 58.7187C455.077 59.5474 455.797 60.5345 456.308 61.68C456.82 62.8012 457.076 64.0563 457.076 65.4456C457.076 66.7617 456.836 68.0047 456.356 69.1746C455.908 70.3445 455.221 71.3682 454.293 72.2456C453.398 73.123 452.295 73.8298 450.983 74.366C449.672 74.8779 448.153 75.1338 446.426 75.1338C445.019 75.1338 443.724 74.951 442.54 74.5854C442.236 74.4852 441.946 74.3705 441.669 74.2414C440.845 73.8566 439.614 74.3992 439.614 75.3087V81.08C439.614 81.6323 439.166 82.08 438.614 82.08H433.61ZM444.411 70.5639C446.106 70.5639 447.433 70.1252 448.393 69.2477C449.384 68.3703 449.88 67.1639 449.88 65.6284C449.88 64.0929 449.4 62.8865 448.441 62.009C447.513 61.1316 446.234 60.6929 444.603 60.6929C442.94 60.6929 441.613 61.1438 440.621 62.0456C439.63 62.9474 439.134 64.166 439.134 65.7015C439.134 67.1151 439.582 68.285 440.477 69.2112C441.373 70.113 442.684 70.5639 444.411 70.5639Z" fill="#333333"/>
<path d="M461.984 57.4886C461.984 56.9363 462.431 56.4886 462.984 56.4886H467.988C468.54 56.4886 468.988 56.9363 468.988 57.4886V63.8861C468.988 64.6814 469.871 65.1585 470.536 64.7222L477.843 59.9289C478.124 59.744 478.294 59.4297 478.294 59.0927V57.4886C478.294 56.9363 478.742 56.4886 479.294 56.4886H484.298C484.85 56.4886 485.298 56.9363 485.298 57.4886V73.7682C485.298 74.3205 484.85 74.7682 484.298 74.7682H479.294C478.742 74.7682 478.294 74.3205 478.294 73.7682V67.7746C478.294 66.9789 477.41 66.5019 476.745 66.9389L471.674 70.2714C470.683 70.9295 469.979 71.5753 469.563 72.209C469.307 72.6319 469.136 73.1525 469.051 73.7708C468.976 74.318 468.54 74.7682 467.988 74.7682H462.984C462.431 74.7682 461.984 74.3205 461.984 73.7682V57.4886Z" fill="#333333"/>
<path d="M490.905 70.7291C490.905 70.3017 491.295 69.9794 491.721 70.0155V70.0155C492.009 70.0399 492.28 70.052 492.536 70.052C493.4 70.052 494.199 69.9424 494.935 69.723C495.178 69.6458 495.405 69.5527 495.616 69.4438C496.246 69.1185 496.015 68.2942 495.367 68.0079C494.363 67.565 493.516 67.0033 492.824 66.323C491.865 65.3481 491.385 64.166 491.385 62.7768C491.385 61.8506 491.609 61.0098 492.056 60.2542C492.504 59.4743 493.128 58.8162 493.927 58.28C494.727 57.7194 495.686 57.2807 496.806 56.9639C497.957 56.647 499.22 56.4886 500.596 56.4886H512.5C513.052 56.4886 513.5 56.9363 513.5 57.4886V73.8779C513.5 74.4301 513.052 74.8779 512.5 74.8779H507.496C506.944 74.8779 506.496 74.4301 506.496 73.8779V70.1381C506.496 69.5858 506.048 69.1381 505.496 69.1381H504.811C504.484 69.1381 504.178 69.2977 503.991 69.5657L503.09 70.8563C502.067 72.2943 500.803 73.3667 499.3 74.0736C497.797 74.7804 496.086 75.1338 494.167 75.1338C493.369 75.1338 492.551 75.0709 491.716 74.9453C491.243 74.8742 490.905 74.4598 490.905 73.9817V70.7291ZM500.931 64.5316H505.496C506.048 64.5316 506.496 64.0839 506.496 63.5316V62.0951C506.496 61.5428 506.048 61.0951 505.496 61.0951H500.931C500.196 61.0951 499.62 61.2535 499.204 61.5703C498.789 61.8872 498.581 62.3015 498.581 62.8133C498.581 63.3252 498.789 63.7395 499.204 64.0563C499.62 64.3732 500.196 64.5316 500.931 64.5316Z" fill="#333333"/>
</svg>
