<svg width="514" height="83" viewBox="0 0 514 83" fill="none" xmlns="http://www.w3.org/2000/svg">
<path d="M61 22.46L80.5 41.96L61 61.46L73 73.46L104.5 41.96L73 10.46L61 22.46Z" fill="white" stroke="white"/>
<path d="M44.5 22.46L25 41.96L44.5 61.46L32.5 73.46L1 41.96L32.5 10.46L44.5 22.46Z" fill="white" stroke="white"/>
<path d="M146.746 0.919998C148.728 0.919998 150.55 1.14417 152.212 1.59253C153.907 2.04088 155.377 2.67604 156.624 3.49802C157.903 4.29509 158.941 5.26652 159.741 6.41231C160.319 7.22394 160.739 8.10741 160.999 9.06271C161.158 9.64783 160.687 10.1859 160.08 10.1859H154.859C154.38 10.1859 153.981 9.8402 153.805 9.39471C153.429 8.44079 152.722 7.65838 151.685 7.04747C150.406 6.2504 148.808 5.85187 146.89 5.85187C144.204 5.85187 142.047 6.62403 140.416 8.16835C138.818 9.71267 138.019 11.7801 138.019 14.3705C138.019 15.6409 138.226 16.7991 138.642 17.8453C139.058 18.8914 139.633 19.7881 140.368 20.5354C141.135 21.2826 142.063 21.868 143.149 22.2914C144.236 22.69 145.451 22.8892 146.794 22.8892C148.712 22.8892 150.342 22.5031 151.685 21.731C152.773 21.0998 153.511 20.3046 153.898 19.3454C154.077 18.9012 154.476 18.5552 154.955 18.5552H160.202C160.799 18.5552 161.269 19.0782 161.124 19.6577C160.881 20.6269 160.468 21.5297 159.884 22.3662C159.117 23.487 158.078 24.4585 156.768 25.2804C155.489 26.0775 153.986 26.7002 152.26 27.1486C150.534 27.5969 148.664 27.8211 146.65 27.8211C144.22 27.8211 142.015 27.4973 140.033 26.8497C138.051 26.202 136.356 25.2929 134.95 24.1222C133.543 22.9266 132.456 21.5068 131.689 19.8629C130.954 18.2189 130.586 16.4006 130.586 14.4079C130.586 12.3654 130.97 10.5222 131.737 8.87824C132.536 7.20938 133.639 5.7896 135.046 4.6189C136.484 3.4233 138.194 2.51414 140.176 1.89143C142.158 1.24381 144.348 0.919998 146.746 0.919998Z" fill="white"/>
<path d="M183.624 8.76615C184.177 8.76615 184.624 9.21387 184.624 9.76615V12.7727C184.624 13.325 184.177 13.7727 183.624 13.7727H178.432C177.879 13.7727 177.432 14.2205 177.432 14.7727V26.4475C177.432 26.9998 176.984 27.4475 176.432 27.4475H171.431C170.879 27.4475 170.431 26.9998 170.431 26.4475V14.7727C170.431 14.2205 169.983 13.7727 169.431 13.7727H164.238C163.686 13.7727 163.238 13.325 163.238 12.7727V9.76615C163.238 9.21387 163.686 8.76615 164.238 8.76615H183.624Z" fill="white"/>
<path d="M186.774 9.58813V9.58813C186.774 9.13417 187.142 8.76615 187.596 8.76615H193.144C193.598 8.76615 193.966 9.13417 193.966 9.58813V9.58813C193.966 11.4563 194.27 13.3119 194.877 15.1552C195.517 16.9735 196.252 18.6548 197.083 20.1991L198.717 23.2902C198.744 23.3423 198.798 23.3749 198.857 23.3749V23.3749C198.916 23.3749 198.971 23.3423 198.998 23.2902L200.632 20.1991C201.463 18.6548 202.182 16.9735 202.789 15.1552C203.429 13.3119 203.748 11.4563 203.748 9.58813V9.58813C203.748 9.13417 204.116 8.76615 204.57 8.76615H209.831C210.285 8.76615 210.653 9.13417 210.653 9.58813V9.58813C210.653 11.8548 210.206 14.1215 209.311 16.3881C208.448 18.6299 207.489 20.6848 206.434 22.553L199.815 34.4075C199.638 34.7239 199.304 34.92 198.942 34.92H192.02C191.956 34.92 191.904 34.8684 191.904 34.8047V34.8047C191.904 34.7824 191.911 34.7606 191.923 34.7419L195.651 28.9914C196.082 28.3261 195.605 27.4475 194.812 27.4475H194.314C193.951 27.4475 193.617 27.2514 193.44 26.935L190.993 22.553C189.938 20.6848 188.963 18.6299 188.068 16.3881C187.205 14.1215 186.774 11.8548 186.774 9.58813Z" fill="white"/>
<path d="M212.371 23.5903C212.371 23.038 212.819 22.5903 213.371 22.5903H214.05C215.169 22.5903 215.888 22.3911 216.208 21.9925C216.527 21.5691 216.719 21.0709 216.783 20.498L217.935 9.66048C217.989 9.15197 218.418 8.76615 218.929 8.76615H235.491C236.043 8.76615 236.491 9.21387 236.491 9.76615V21.5903C236.491 22.1426 236.939 22.5903 237.491 22.5903H239.327C239.879 22.5903 240.327 23.038 240.327 23.5903V31.3046C240.327 31.8569 239.879 32.3046 239.327 32.3046H234.712C234.198 32.3046 233.767 31.9146 233.717 31.4029L233.415 28.3492C233.365 27.8375 232.934 27.4475 232.42 27.4475H220.278C219.764 27.4475 219.334 27.8375 219.283 28.3492L218.982 31.4029C218.931 31.9146 218.501 32.3046 217.987 32.3046H213.371C212.819 32.3046 212.371 31.8569 212.371 31.3046V23.5903ZM228.49 22.5903C229.042 22.5903 229.49 22.1426 229.49 21.5903V14.6233C229.49 14.071 229.042 13.6233 228.49 13.6233H225.162C224.651 13.6233 224.222 14.0087 224.168 14.517L223.592 19.9002C223.528 20.5977 223.384 21.1581 223.16 21.5815V21.5815C222.975 21.9672 223.226 22.5903 223.654 22.5903H228.49Z" fill="white"/>
<path d="M241.054 18.0694C241.054 16.5999 241.342 15.2673 241.917 14.0716C242.525 12.876 243.372 11.8673 244.459 11.0453C245.546 10.1984 246.84 9.55077 248.343 9.10242C249.845 8.62916 251.508 8.39253 253.33 8.39253C255.088 8.39253 256.67 8.60425 258.077 9.02769C259.484 9.45113 260.682 10.0489 261.673 10.8211C262.696 11.5933 263.48 12.5273 264.023 13.6233C264.566 14.6944 264.838 15.9024 264.838 17.2475C264.838 17.6138 264.816 17.9887 264.772 18.3723C264.717 18.8494 264.299 19.1903 263.819 19.1903H249.085C248.453 19.1903 247.972 19.7761 248.228 20.3537C248.554 21.0931 249.04 21.7141 249.686 22.2167C250.676 22.964 251.923 23.3376 253.426 23.3376C254.609 23.3376 255.615 23.101 256.447 22.6277C257.002 22.3117 257.414 21.929 257.684 21.4798C257.921 21.086 258.304 20.7596 258.763 20.7596H263.818C264.43 20.7596 264.904 21.3102 264.699 21.8872C264.479 22.5048 264.158 23.0879 263.735 23.6365C263.096 24.5083 262.265 25.2555 261.242 25.8782C260.219 26.501 259.02 26.9867 257.645 27.3354C256.303 27.6592 254.848 27.8211 253.282 27.8211C251.428 27.8211 249.749 27.5845 248.247 27.1112C246.744 26.6379 245.45 25.9779 244.363 25.131C243.308 24.2592 242.493 23.2255 241.917 22.0299C241.342 20.8343 241.054 19.5141 241.054 18.0694ZM249.195 14.1423C248.687 14.6782 249.154 15.4541 249.892 15.4541H256.776C257.386 15.4541 257.864 14.8922 257.545 14.3723C257.301 13.9743 256.951 13.625 256.495 13.3244C255.695 12.7764 254.672 12.5024 253.426 12.5024C252.211 12.5024 251.156 12.764 250.261 13.287C249.861 13.5293 249.506 13.8144 249.195 14.1423Z" fill="white"/>
<path d="M272.292 27.4475C271.74 27.4475 271.292 26.9998 271.292 26.4475V9.76615C271.292 9.21387 271.74 8.76615 272.292 8.76615H277.293C277.845 8.76615 278.293 9.21387 278.293 9.76615V14.2673C278.293 14.8195 278.741 15.2673 279.293 15.2673H286.596C287.148 15.2673 287.596 14.8195 287.596 14.2673V9.76615C287.596 9.21387 288.043 8.76615 288.596 8.76615H293.596C294.149 8.76615 294.596 9.21387 294.596 9.76615V26.4475C294.596 26.9998 294.149 27.4475 293.596 27.4475H288.596C288.043 27.4475 287.596 26.9998 287.596 26.4475V21.1244C287.596 20.5721 287.148 20.1244 286.596 20.1244H279.293C278.741 20.1244 278.293 20.5721 278.293 21.1244V26.4475C278.293 26.9998 277.845 27.4475 277.293 27.4475H272.292Z" fill="white"/>
<path d="M299.961 9.76615C299.961 9.21387 300.409 8.76615 300.961 8.76615H305.962C306.515 8.76615 306.962 9.21387 306.962 9.76615V14.2958C306.962 15.4416 307.282 16.3508 307.921 17.0233C308.561 17.6709 309.552 17.9947 310.894 17.9947C312.045 17.9947 313.068 17.7332 313.963 17.2101C314.858 16.687 315.306 15.9771 315.306 15.0804V9.76615C315.306 9.21387 315.754 8.76615 316.306 8.76615H321.307C321.859 8.76615 322.307 9.21387 322.307 9.76615V26.4475C322.307 26.9998 321.859 27.4475 321.307 27.4475H316.306C315.754 27.4475 315.306 26.9998 315.306 26.4475V22.9439C315.306 22.1418 314.375 21.6215 313.62 21.8911C313.278 22.0131 312.913 22.1217 312.525 22.2167C311.438 22.4658 310.287 22.5903 309.072 22.5903C306.003 22.5903 303.718 21.8555 302.215 20.3859C300.713 18.8914 299.961 16.9112 299.961 14.4453V9.76615Z" fill="white"/>
<path d="M325.765 18.0694C325.765 16.5999 326.053 15.2673 326.628 14.0716C327.236 12.876 328.083 11.8673 329.17 11.0453C330.257 10.1984 331.551 9.55077 333.054 9.10242C334.556 8.62916 336.219 8.39253 338.041 8.39253C339.799 8.39253 341.381 8.60425 342.788 9.02769C344.195 9.45113 345.393 10.0489 346.384 10.8211C347.407 11.5933 348.191 12.5273 348.734 13.6233C349.277 14.6944 349.549 15.9024 349.549 17.2475C349.549 17.6138 349.527 17.9887 349.483 18.3723C349.428 18.8494 349.01 19.1903 348.53 19.1903H333.796C333.164 19.1903 332.683 19.7761 332.939 20.3537C333.265 21.0931 333.751 21.7141 334.397 22.2167C335.388 22.964 336.634 23.3376 338.137 23.3376C339.32 23.3376 340.327 23.101 341.158 22.6277C341.713 22.3117 342.125 21.929 342.395 21.4798C342.632 21.086 343.015 20.7596 343.474 20.7596H348.529C349.141 20.7596 349.615 21.3102 349.41 21.8872C349.19 22.5048 348.869 23.0879 348.446 23.6365C347.807 24.5083 346.976 25.2555 345.953 25.8782C344.93 26.501 343.731 26.9867 342.356 27.3354C341.014 27.6592 339.559 27.8211 337.993 27.8211C336.139 27.8211 334.46 27.5845 332.958 27.1112C331.456 26.6379 330.161 25.9779 329.074 25.131C328.019 24.2592 327.204 23.2255 326.628 22.0299C326.053 20.8343 325.765 19.5141 325.765 18.0694ZM333.906 14.1423C333.398 14.6782 333.865 15.4541 334.603 15.4541H341.487C342.097 15.4541 342.575 14.8922 342.256 14.3723C342.012 13.9743 341.662 13.625 341.206 13.3244C340.406 12.7764 339.383 12.5024 338.137 12.5024C336.922 12.5024 335.867 12.764 334.972 13.287C334.572 13.5293 334.217 13.8144 333.906 14.1423Z" fill="white"/>
<path d="M364.874 8.39253C366.473 8.39253 367.927 8.57934 369.238 8.95296C370.58 9.30168 371.747 9.79985 372.738 10.4475C373.729 11.0951 374.528 11.8797 375.136 12.8013C375.538 13.3946 375.835 14.0371 376.027 14.7285C376.186 15.304 375.715 15.8277 375.118 15.8277H370.02C369.56 15.8277 369.177 15.5019 368.945 15.1055C368.682 14.6571 368.284 14.2751 367.751 13.9596C366.984 13.4863 366.041 13.2497 364.922 13.2497C363.388 13.2497 362.141 13.6856 361.182 14.5574C360.223 15.4042 359.743 16.5749 359.743 18.0694C359.743 19.5141 360.207 20.6973 361.134 21.6189C362.061 22.5156 363.324 22.964 364.922 22.964C366.073 22.964 367.064 22.7273 367.895 22.2541C368.472 21.9376 368.899 21.5543 369.176 21.1042C369.417 20.7129 369.8 20.3859 370.259 20.3859H375.293C375.912 20.3859 376.387 20.9473 376.192 21.5353C375.965 22.2151 375.645 22.8533 375.232 23.4497C374.592 24.3464 373.745 25.1185 372.69 25.7662C371.667 26.4138 370.484 26.9244 369.142 27.298C367.799 27.6467 366.329 27.8211 364.73 27.8211C362.908 27.8211 361.246 27.5845 359.743 27.1112C358.241 26.6379 356.946 25.9779 355.859 25.131C354.804 24.2592 353.989 23.2379 353.414 22.0673C352.838 20.8716 352.551 19.5515 352.551 18.1068C352.551 16.6372 352.854 15.3046 353.462 14.109C354.069 12.9134 354.916 11.8922 356.003 11.0453C357.09 10.1984 358.385 9.55077 359.887 9.10242C361.39 8.62916 363.052 8.39253 364.874 8.39253Z" fill="white"/>
<path d="M383.554 27.4475C383.002 27.4475 382.554 26.9998 382.554 26.4475V9.76615C382.554 9.21387 383.002 8.76615 383.554 8.76615H388.555C389.108 8.76615 389.555 9.21387 389.555 9.76615V14.2673C389.555 14.8195 390.003 15.2673 390.555 15.2673H390.626C390.892 15.2673 391.147 15.1613 391.335 14.9728L397.222 9.06056C397.41 8.8721 397.665 8.76615 397.931 8.76615H405.562C405.62 8.76615 405.667 8.81319 405.667 8.8712V8.8712C405.667 8.89959 405.655 8.92676 405.635 8.94654L397.965 16.3998C397.6 16.7548 397.56 17.3277 397.872 17.7301L398.57 18.6299C398.922 19.0782 399.289 19.539 399.673 20.0123C400.089 20.4607 400.536 20.8841 401.016 21.2826C401.527 21.6812 402.087 22.005 402.694 22.2541C403.301 22.5031 403.973 22.6277 404.708 22.6277V22.6277C405.218 22.6277 405.667 23.0052 405.667 23.5155V26.746C405.667 27.2199 405.335 27.6346 404.864 27.6914C404.652 27.717 404.44 27.7354 404.228 27.7464C403.781 27.7962 403.349 27.8211 402.934 27.8211C401.559 27.8211 400.344 27.6218 399.289 27.2233C398.266 26.8248 397.323 26.2892 396.46 25.6167C395.629 24.9442 394.878 24.1845 394.207 23.3376C393.535 22.4658 392.864 21.5691 392.193 20.6475L392.109 20.533C391.92 20.2761 391.621 20.1244 391.302 20.1244H390.555C390.003 20.1244 389.555 20.5721 389.555 21.1244V26.4475C389.555 26.9998 389.108 27.4475 388.555 27.4475H383.554Z" fill="white"/>
<path d="M408.543 22.1793C408.543 20.4607 409.342 19.0907 410.941 18.0694C412.571 17.0482 414.713 16.5376 417.366 16.5376H422.648C423.2 16.5376 423.648 16.0899 423.648 15.5376V14.7815C423.648 13.9845 423.312 13.3618 422.641 12.9134C421.97 12.4401 421.059 12.2035 419.908 12.2035C418.565 12.2035 417.574 12.49 416.935 13.0629C416.549 13.4088 416.268 13.7955 416.091 14.2232C415.893 14.7051 415.478 15.1178 414.957 15.1178H410.524C409.945 15.1178 409.479 14.6233 409.625 14.0632C409.77 13.5066 410.001 12.9739 410.317 12.4651C410.861 11.6431 411.596 10.9332 412.523 10.3354C413.45 9.73758 414.553 9.26432 415.832 8.9156C417.111 8.56688 418.549 8.39253 420.148 8.39253C421.682 8.39253 423.089 8.55443 424.367 8.87824C425.646 9.20205 426.749 9.66286 427.676 10.2607C428.603 10.8585 429.322 11.5933 429.834 12.4651C430.377 13.3119 430.649 14.2709 430.649 15.342V26.4475C430.649 26.9998 430.201 27.4475 429.649 27.4475H424.932C424.605 27.4475 424.324 27.2137 424.265 26.8918V26.8918C424.147 26.2452 423.024 25.9808 422.473 26.3403C422.109 26.5783 421.685 26.7979 421.202 26.9991C419.828 27.5471 418.277 27.8211 416.551 27.8211C414.122 27.8211 412.172 27.298 410.701 26.2519C409.263 25.1808 408.543 23.8233 408.543 22.1793ZM415.736 22.0299C415.736 22.6277 415.992 23.1134 416.503 23.487C417.015 23.8607 417.766 24.0475 418.757 24.0475C420.259 24.0475 421.442 23.6489 422.305 22.8519C422.912 22.274 423.314 21.6037 423.51 20.8411C423.65 20.2961 423.184 19.8255 422.621 19.8255H418.949C417.926 19.8255 417.127 20.0372 416.551 20.4607C416.008 20.8592 415.736 21.3823 415.736 22.0299Z" fill="white"/>
<path d="M436.001 23.3015C436.001 22.8748 436.391 22.5535 436.816 22.5903V22.5903C437.104 22.6152 437.376 22.6277 437.631 22.6277C438.495 22.6277 439.294 22.5156 440.029 22.2914C440.285 22.2082 440.524 22.1068 440.745 21.9874C441.362 21.6536 441.128 20.8377 440.488 20.551C439.473 20.0964 438.617 19.5183 437.919 18.8167C436.96 17.8204 436.481 16.6123 436.481 15.1925C436.481 14.246 436.704 13.3867 437.152 12.6145C437.599 11.8174 438.223 11.1449 439.022 10.5969C439.821 10.024 440.78 9.57568 441.899 9.25187C443.05 8.92806 444.313 8.76615 445.687 8.76615H457.586C458.138 8.76615 458.586 9.21387 458.586 9.76615V26.5596C458.586 27.1118 458.138 27.5596 457.586 27.5596H452.585C452.033 27.5596 451.585 27.1118 451.585 26.5596V22.6936C451.585 22.1413 451.138 21.6936 450.585 21.6936H449.908C449.577 21.6936 449.268 21.8569 449.082 22.1298L448.181 23.4497C447.158 24.9193 445.895 26.0152 444.393 26.7376C442.89 27.4599 441.18 27.8211 439.262 27.8211C438.462 27.8211 437.644 27.7567 436.808 27.6279C436.337 27.5554 436.001 27.1419 436.001 26.6653V23.3015ZM446.023 16.9859H450.585C451.138 16.9859 451.585 16.5382 451.585 15.9859V14.4738C451.585 13.9216 451.138 13.4738 450.585 13.4738H446.023C445.288 13.4738 444.712 13.6357 444.297 13.9596C443.881 14.2834 443.673 14.7068 443.673 15.2299C443.673 15.753 443.881 16.1764 444.297 16.5002C444.712 16.824 445.288 16.9859 446.023 16.9859Z" fill="white"/>
<path d="M136.696 50.0968C137.248 50.0968 137.696 50.5445 137.696 51.0968V62.7571C137.696 63.5878 138.65 64.0563 139.307 63.5484L151.123 54.4185C151.368 54.2292 151.512 53.9369 151.512 53.6272V51.0968C151.512 50.5445 151.96 50.0968 152.512 50.0968H157.708C158.26 50.0968 158.708 50.5445 158.708 51.0968V74.6882C158.708 75.2405 158.26 75.6882 157.708 75.6882H152.512C151.96 75.6882 151.512 75.2405 151.512 74.6882V63.0286C151.512 62.1978 150.557 61.7293 149.9 62.2375L141.63 68.6323C140.926 69.1685 140.318 69.6803 139.807 70.1677C139.295 70.6552 138.879 71.167 138.559 71.7032C138.271 72.2151 138.048 72.7878 137.888 73.4215C137.811 73.8004 137.758 74.2228 137.727 74.6888C137.69 75.2399 137.248 75.6882 136.696 75.6882H131.5C130.948 75.6882 130.5 75.2405 130.5 74.6882V51.0968C130.5 50.5445 130.948 50.0968 131.5 50.0968H136.696Z" fill="white"/>
<path d="M188.503 50.0968C189.056 50.0968 189.503 50.5445 189.503 51.0968V54.2151C189.503 54.7673 189.056 55.2151 188.503 55.2151H180.909C180.357 55.2151 179.909 55.6628 179.909 56.2151V74.6882C179.909 75.2405 179.461 75.6882 178.909 75.6882H173.713C173.161 75.6882 172.713 75.2405 172.713 74.6882V56.2151C172.713 55.6628 172.265 55.2151 171.713 55.2151H164.119C163.567 55.2151 163.119 54.7673 163.119 54.2151V51.0968C163.119 50.5445 163.567 50.0968 164.119 50.0968H188.503Z" fill="white"/>
<path d="M193.515 67.0602C192.963 67.0602 192.515 66.6125 192.515 66.0602V63.3806C192.515 62.8284 192.963 62.3806 193.515 62.3806H205.907C206.459 62.3806 206.907 62.8284 206.907 63.3806V66.0602C206.907 66.6125 206.459 67.0602 205.907 67.0602H193.515Z" fill="white"/>
<path d="M212.152 75.8263C211.677 75.7564 211.336 75.3408 211.336 74.8607V71.7641C211.336 71.3382 211.731 71.0175 212.152 71.0817V71.0817C212.472 71.1061 212.792 71.1183 213.111 71.1183C213.719 71.1183 214.279 71.0086 214.79 70.7892C215.334 70.5455 215.638 70.0703 215.702 69.3634L216.9 58.3009C216.955 57.7933 217.384 57.4086 217.895 57.4086H234.946C235.498 57.4086 235.946 57.8563 235.946 58.4086V74.6882C235.946 75.2405 235.498 75.6882 234.946 75.6882H229.942C229.39 75.6882 228.942 75.2405 228.942 74.6882V63.1613C228.942 62.609 228.494 62.1613 227.942 62.1613H224.131C223.62 62.1613 223.192 62.5457 223.136 63.0531L222.322 70.5333C222.098 72.5075 221.299 73.9211 219.923 74.7742C218.58 75.6272 216.901 76.0538 214.886 76.0538C214.343 76.0538 213.767 76.0172 213.159 75.9441C212.834 75.9165 212.498 75.8773 212.152 75.8263Z" fill="white"/>
<path d="M240.862 70.5333C240.862 68.8516 241.661 67.5111 243.26 66.5118C244.891 65.5125 247.034 65.0129 249.689 65.0129H254.973C255.525 65.0129 255.973 64.5652 255.973 64.0129V63.2946C255.973 62.5147 255.637 61.9054 254.966 61.4667C254.294 61.0036 253.382 60.772 252.231 60.772C250.888 60.772 249.896 61.0523 249.257 61.6129C248.875 61.9472 248.596 62.3204 248.42 62.7327C248.215 63.2111 247.801 63.6237 247.28 63.6237H242.845C242.265 63.6237 241.798 63.1278 241.95 62.5686C242.095 62.0324 242.324 61.5188 242.637 61.028C243.18 60.2237 243.916 59.529 244.843 58.9441C245.771 58.3591 246.874 57.8961 248.153 57.5548C249.433 57.2136 250.872 57.043 252.471 57.043C254.006 57.043 255.413 57.2014 256.693 57.5183C257.972 57.8351 259.075 58.286 260.003 58.871C260.93 59.4559 261.65 60.1749 262.161 61.028C262.705 61.8566 262.977 62.795 262.977 63.843V74.6882C262.977 75.2405 262.529 75.6882 261.977 75.6882H257.253C256.928 75.6882 256.649 75.4566 256.589 75.137V75.137C256.469 74.4972 255.368 74.2367 254.821 74.5897C254.451 74.8285 254.02 75.0484 253.526 75.2495C252.151 75.7857 250.6 76.0538 248.873 76.0538C246.442 76.0538 244.492 75.5419 243.02 74.5183C241.581 73.4703 240.862 72.1419 240.862 70.5333ZM248.058 70.3871C248.058 70.972 248.313 71.4473 248.825 71.8129C249.337 72.1785 250.088 72.3613 251.08 72.3613C252.583 72.3613 253.766 71.9713 254.63 71.1914C255.231 70.6313 255.631 69.9827 255.829 69.2453C255.975 68.7016 255.508 68.2301 254.945 68.2301H251.272C250.248 68.2301 249.449 68.4373 248.873 68.8516C248.329 69.2416 248.058 69.7534 248.058 70.3871Z" fill="white"/>
<path d="M268.092 66.4753C268.092 65.0129 268.395 63.709 269.003 62.5634C269.452 61.7421 270.019 61.0048 270.705 60.3517C271.163 59.9155 271.195 59.173 270.798 58.6805C269.953 57.6303 269.531 56.4629 269.531 55.1785C269.531 54.1305 269.803 53.2165 270.346 52.4366C270.89 51.6566 271.609 51.0108 272.505 50.4989C273.432 49.9871 274.488 49.6093 275.671 49.3656C276.854 49.1219 278.07 49 279.317 49H289.83C290.383 49 290.83 49.4477 290.83 50V53.1183C290.83 53.6706 290.383 54.1183 289.83 54.1183H279.269C278.054 54.1183 277.174 54.3254 276.631 54.7398C276.087 55.1541 275.815 55.605 275.815 56.0925C275.815 56.4172 275.907 56.7312 276.092 57.0343C276.275 57.3348 276.648 57.4327 276.994 57.3677C278.145 57.1512 279.367 57.043 280.66 57.043C282.547 57.043 284.258 57.2746 285.793 57.7376C287.328 58.1763 288.64 58.81 289.727 59.6387C290.846 60.443 291.71 61.4301 292.317 62.6C292.925 63.7455 293.229 65.0373 293.229 66.4753C293.229 67.8889 292.925 69.1928 292.317 70.3871C291.71 71.557 290.846 72.5685 289.727 73.4215C288.64 74.2502 287.328 74.8961 285.793 75.3591C284.258 75.8222 282.547 76.0538 280.66 76.0538C278.773 76.0538 277.062 75.8222 275.527 75.3591C273.992 74.8961 272.665 74.2502 271.546 73.4215C270.458 72.5685 269.611 71.557 269.003 70.3871C268.395 69.1928 268.092 67.8889 268.092 66.4753ZM280.66 71.4839C282.355 71.4839 283.666 71.033 284.594 70.1312C285.553 69.2294 286.033 68.0108 286.033 66.4753C286.033 64.9398 285.553 63.7455 284.594 62.8925C283.666 62.0394 282.355 61.6129 280.66 61.6129C278.965 61.6129 277.638 62.0394 276.679 62.8925C275.751 63.7455 275.287 64.9398 275.287 66.4753C275.287 68.0108 275.751 69.2294 276.679 70.1312C277.638 71.033 278.965 71.4839 280.66 71.4839Z" fill="white"/>
<path d="M308.664 57.043C310.551 57.043 312.262 57.2746 313.797 57.7376C315.332 58.1763 316.643 58.81 317.731 59.6387C318.85 60.443 319.714 61.4301 320.321 62.6C320.929 63.7455 321.233 65.0373 321.233 66.4753C321.233 67.8889 320.929 69.1928 320.321 70.3871C319.714 71.557 318.85 72.5685 317.731 73.4215C316.643 74.2502 315.332 74.8961 313.797 75.3591C312.262 75.8222 310.551 76.0538 308.664 76.0538C306.777 76.0538 305.066 75.8222 303.531 75.3591C301.996 74.8961 300.669 74.2502 299.549 73.4215C298.462 72.5685 297.614 71.557 297.007 70.3871C296.399 69.1928 296.095 67.8889 296.095 66.4753C296.095 65.0373 296.399 63.7455 297.007 62.6C297.614 61.4301 298.462 60.443 299.549 59.6387C300.669 58.81 301.996 58.1763 303.531 57.7376C305.066 57.2746 306.777 57.043 308.664 57.043ZM303.291 66.4753C303.291 68.0108 303.755 69.2294 304.682 70.1312C305.642 71.0086 306.969 71.4473 308.664 71.4473C310.359 71.4473 311.67 71.0086 312.598 70.1312C313.557 69.2294 314.037 68.0108 314.037 66.4753C314.037 64.9398 313.557 63.7577 312.598 62.929C311.67 62.076 310.359 61.6495 308.664 61.6495C306.969 61.6495 305.642 62.076 304.682 62.929C303.755 63.7577 303.291 64.9398 303.291 66.4753Z" fill="white"/>
<path d="M327.125 83C326.573 83 326.125 82.5523 326.125 82V58.4086C326.125 57.8563 326.573 57.4086 327.125 57.4086H331.766C332.145 57.4086 332.478 57.6636 332.576 58.0302V58.0302C332.727 58.596 333.399 58.8366 333.909 58.5483C334.667 58.1198 335.462 57.7887 336.295 57.5548C337.51 57.2136 338.774 57.043 340.085 57.043C341.652 57.043 343.075 57.2746 344.354 57.7376C345.634 58.1763 346.737 58.81 347.665 59.6387C348.592 60.4674 349.312 61.4545 349.823 62.6C350.335 63.7211 350.591 64.9763 350.591 66.3656C350.591 67.6817 350.351 68.9247 349.871 70.0946C349.424 71.2645 348.736 72.2882 347.808 73.1656C346.913 74.043 345.81 74.7498 344.498 75.286C343.187 75.7979 341.668 76.0538 339.941 76.0538C338.534 76.0538 337.239 75.871 336.055 75.5054C335.751 75.4052 335.461 75.2905 335.184 75.1614C334.36 74.7766 333.129 75.3192 333.129 76.2286V82C333.129 82.5523 332.681 83 332.129 83H327.125ZM337.926 71.4839C339.621 71.4839 340.948 71.0452 341.908 70.1677C342.899 69.2903 343.395 68.0839 343.395 66.5484C343.395 65.0129 342.915 63.8065 341.956 62.929C341.028 62.0516 339.749 61.6129 338.118 61.6129C336.455 61.6129 335.128 62.0638 334.136 62.9656C333.145 63.8674 332.649 65.086 332.649 66.6215C332.649 68.0351 333.097 69.205 333.992 70.1312C334.888 71.033 336.199 71.4839 337.926 71.4839Z" fill="white"/>
<path d="M353.484 70.5333C353.484 68.8516 354.283 67.5111 355.882 66.5118C357.513 65.5125 359.656 65.0129 362.311 65.0129H367.595C368.147 65.0129 368.595 64.5652 368.595 64.0129V63.2946C368.595 62.5147 368.259 61.9054 367.588 61.4667C366.916 61.0036 366.004 60.772 364.853 60.772C363.51 60.772 362.519 61.0523 361.879 61.6129C361.497 61.9472 361.218 62.3204 361.042 62.7327C360.837 63.2111 360.423 63.6237 359.902 63.6237H355.467C354.887 63.6237 354.42 63.1278 354.572 62.5686C354.718 62.0324 354.946 61.5188 355.259 61.028C355.802 60.2237 356.538 59.529 357.465 58.9441C358.393 58.3591 359.496 57.8961 360.776 57.5548C362.055 57.2136 363.494 57.043 365.093 57.043C366.628 57.043 368.035 57.2014 369.315 57.5183C370.594 57.8351 371.697 58.286 372.625 58.871C373.552 59.4559 374.272 60.1749 374.783 61.028C375.327 61.8566 375.599 62.795 375.599 63.843V74.6882C375.599 75.2405 375.151 75.6882 374.599 75.6882H369.875C369.55 75.6882 369.271 75.4566 369.211 75.137V75.137C369.091 74.4972 367.99 74.2367 367.443 74.5897C367.073 74.8285 366.642 75.0484 366.148 75.2495C364.773 75.7857 363.222 76.0538 361.495 76.0538C359.065 76.0538 357.114 75.5419 355.643 74.5183C354.203 73.4703 353.484 72.1419 353.484 70.5333ZM360.68 70.3871C360.68 70.972 360.935 71.4473 361.447 71.8129C361.959 72.1785 362.71 72.3613 363.702 72.3613C365.205 72.3613 366.388 71.9713 367.252 71.1914C367.853 70.6313 368.253 69.9827 368.451 69.2453C368.597 68.7016 368.13 68.2301 367.567 68.2301H363.894C362.87 68.2301 362.071 68.4373 361.495 68.8516C360.951 69.2416 360.68 69.7534 360.68 70.3871Z" fill="white"/>
<path d="M399.67 57.4086C400.222 57.4086 400.67 57.8563 400.67 58.4086V61.3075C400.67 61.8598 400.222 62.3075 399.67 62.3075H394.474C393.922 62.3075 393.474 62.7552 393.474 63.3075V74.6882C393.474 75.2405 393.026 75.6882 392.474 75.6882H387.47C386.918 75.6882 386.47 75.2405 386.47 74.6882V63.3075C386.47 62.7552 386.022 62.3075 385.47 62.3075H380.274C379.722 62.3075 379.274 61.8598 379.274 61.3075V58.4086C379.274 57.8563 379.722 57.4086 380.274 57.4086H399.67Z" fill="white"/>
<path d="M415.149 57.043C417.036 57.043 418.747 57.2746 420.282 57.7376C421.817 58.1763 423.128 58.81 424.216 59.6387C425.335 60.443 426.198 61.4301 426.806 62.6C427.414 63.7455 427.718 65.0373 427.718 66.4753C427.718 67.8889 427.414 69.1928 426.806 70.3871C426.198 71.557 425.335 72.5685 424.216 73.4215C423.128 74.2502 421.817 74.8961 420.282 75.3591C418.747 75.8222 417.036 76.0538 415.149 76.0538C413.262 76.0538 411.551 75.8222 410.016 75.3591C408.481 74.8961 407.154 74.2502 406.034 73.4215C404.947 72.5685 404.099 71.557 403.492 70.3871C402.884 69.1928 402.58 67.8889 402.58 66.4753C402.58 65.0373 402.884 63.7455 403.492 62.6C404.099 61.4301 404.947 60.443 406.034 59.6387C407.154 58.81 408.481 58.1763 410.016 57.7376C411.551 57.2746 413.262 57.043 415.149 57.043ZM409.776 66.4753C409.776 68.0108 410.24 69.2294 411.167 70.1312C412.127 71.0086 413.454 71.4473 415.149 71.4473C416.844 71.4473 418.155 71.0086 419.083 70.1312C420.042 69.2294 420.522 68.0108 420.522 66.4753C420.522 64.9398 420.042 63.7577 419.083 62.929C418.155 62.076 416.844 61.6495 415.149 61.6495C413.454 61.6495 412.127 62.076 411.167 62.929C410.24 63.7577 409.776 64.9398 409.776 66.4753Z" fill="white"/>
<path d="M433.61 83C433.058 83 432.61 82.5523 432.61 82V58.4086C432.61 57.8563 433.058 57.4086 433.61 57.4086H438.251C438.63 57.4086 438.963 57.6636 439.061 58.0302V58.0302C439.212 58.596 439.884 58.8366 440.394 58.5483C441.152 58.1198 441.947 57.7887 442.78 57.5548C443.995 57.2136 445.259 57.043 446.57 57.043C448.137 57.043 449.56 57.2746 450.839 57.7376C452.119 58.1763 453.222 58.81 454.149 59.6387C455.077 60.4674 455.797 61.4545 456.308 62.6C456.82 63.7211 457.076 64.9763 457.076 66.3656C457.076 67.6817 456.836 68.9247 456.356 70.0946C455.908 71.2645 455.221 72.2882 454.293 73.1656C453.398 74.043 452.295 74.7498 450.983 75.286C449.672 75.7979 448.153 76.0538 446.426 76.0538C445.019 76.0538 443.724 75.871 442.54 75.5054C442.236 75.4052 441.946 75.2905 441.669 75.1614C440.845 74.7766 439.614 75.3192 439.614 76.2286V82C439.614 82.5523 439.166 83 438.614 83H433.61ZM444.411 71.4839C446.106 71.4839 447.433 71.0452 448.393 70.1677C449.384 69.2903 449.88 68.0839 449.88 66.5484C449.88 65.0129 449.4 63.8065 448.441 62.929C447.513 62.0516 446.234 61.6129 444.603 61.6129C442.94 61.6129 441.613 62.0638 440.621 62.9656C439.63 63.8674 439.134 65.086 439.134 66.6215C439.134 68.0351 439.582 69.205 440.477 70.1312C441.373 71.033 442.684 71.4839 444.411 71.4839Z" fill="white"/>
<path d="M461.984 58.4086C461.984 57.8563 462.431 57.4086 462.984 57.4086H467.988C468.54 57.4086 468.988 57.8563 468.988 58.4086V64.8061C468.988 65.6014 469.871 66.0785 470.536 65.6422L477.843 60.8489C478.124 60.664 478.294 60.3497 478.294 60.0127V58.4086C478.294 57.8563 478.742 57.4086 479.294 57.4086H484.298C484.85 57.4086 485.298 57.8563 485.298 58.4086V74.6882C485.298 75.2405 484.85 75.6882 484.298 75.6882H479.294C478.742 75.6882 478.294 75.2405 478.294 74.6882V68.6946C478.294 67.8989 477.41 67.4219 476.745 67.8589L471.674 71.1914C470.683 71.8495 469.979 72.4953 469.563 73.129C469.307 73.5519 469.136 74.0725 469.051 74.6908C468.976 75.238 468.54 75.6882 467.988 75.6882H462.984C462.431 75.6882 461.984 75.2405 461.984 74.6882V58.4086Z" fill="white"/>
<path d="M490.905 71.6491C490.905 71.2217 491.295 70.8994 491.721 70.9355V70.9355C492.009 70.9599 492.28 70.972 492.536 70.972C493.4 70.972 494.199 70.8624 494.935 70.643C495.178 70.5658 495.405 70.4727 495.616 70.3638C496.246 70.0385 496.015 69.2142 495.367 68.9279C494.363 68.485 493.516 67.9233 492.824 67.243C491.865 66.2681 491.385 65.086 491.385 63.6968C491.385 62.7706 491.609 61.9297 492.056 61.1742C492.504 60.3943 493.128 59.7362 493.927 59.2C494.727 58.6394 495.686 58.2007 496.806 57.8839C497.957 57.567 499.22 57.4086 500.596 57.4086H512.5C513.052 57.4086 513.5 57.8563 513.5 58.4086V74.7979C513.5 75.3501 513.052 75.7979 512.5 75.7979H507.496C506.944 75.7979 506.496 75.3501 506.496 74.7979V71.0581C506.496 70.5058 506.048 70.0581 505.496 70.0581H504.811C504.484 70.0581 504.178 70.2177 503.991 70.4857L503.09 71.7763C502.067 73.2143 500.803 74.2867 499.3 74.9936C497.797 75.7004 496.086 76.0538 494.167 76.0538C493.369 76.0538 492.551 75.9909 491.716 75.8653C491.243 75.7942 490.905 75.3798 490.905 74.9017V71.6491ZM500.931 65.4516H505.496C506.048 65.4516 506.496 65.0039 506.496 64.4516V63.0151C506.496 62.4628 506.048 62.0151 505.496 62.0151H500.931C500.196 62.0151 499.62 62.1735 499.204 62.4903C498.789 62.8072 498.581 63.2215 498.581 63.7333C498.581 64.2452 498.789 64.6595 499.204 64.9763C499.62 65.2932 500.196 65.4516 500.931 65.4516Z" fill="white"/>
</svg>
