<?xml version="1.0" encoding="US-ASCII" standalone="no"?>
<!DOCTYPE svg PUBLIC "-//W3C//DTD SVG 1.1//EN"
  "http://www.w3.org/Graphics/SVG/1.1/DTD/svg11.dtd">
<svg width="50" height="88" xmlns="http://www.w3.org/2000/svg" version="1.1"><g stroke="white" stroke-width="1"><g transform="translate(25,14)"><line x1="0" y1="0" x2="0" y2="20"/><line x1="0" y1="0" x2="-12" y2="20"/><line x1="0" y1="0" x2="12" y2="20"/><g transform="translate(0,20)"><line x1="0" y1="0" x2="0" y2="20"/><g transform="translate(0,20)"><line x1="0" y1="0" x2="-6" y2="20"/><line x1="0" y1="0" x2="0" y2="20"/><line x1="0" y1="0" x2="6" y2="20"/><g transform="translate(-6,20)"><g fill="#00f"><rect x="-2" y="-2" width="4" height="4"/></g></g><g transform="translate(0,20)"><g fill="#00f"><rect x="-2" y="-2" width="4" height="4"/></g></g><g transform="translate(6,20)"><g fill="#00f"><rect x="-2" y="-2" width="4" height="4"/></g></g><g fill="#0f0"><circle r="3"/></g></g><g fill="#f00"><circle r="3"/></g></g><g transform="translate(-12,20)"><g fill="#00f"><rect x="-2" y="-2" width="4" height="4"/></g></g><g transform="translate(12,20)"><g fill="#00f"><rect x="-2" y="-2" width="4" height="4"/></g></g><g fill="#f00"><circle r="3"/></g></g></g></svg>
