<?xml version="1.0" encoding="US-ASCII" standalone="no"?>
<!DOCTYPE svg PUBLIC "-//W3C//DTD SVG 1.1//EN"
  "http://www.w3.org/Graphics/SVG/1.1/DTD/svg11.dtd">
<svg width="804" height="168" xmlns="http://www.w3.org/2000/svg" version="1.1"><g stroke="white" stroke-width="1"><g transform="translate(546,14)"><line x1="0" y1="0" x2="0" y2="20"/><line x1="0" y1="0" x2="-533" y2="20"/><line x1="0" y1="0" x2="-527" y2="20"/><line x1="0" y1="0" x2="-521" y2="20"/><line x1="0" y1="0" x2="239" y2="20"/><line x1="0" y1="0" x2="245" y2="20"/><g transform="translate(0,20)"><line x1="0" y1="0" x2="0" y2="20"/><line x1="0" y1="0" x2="-509" y2="20"/><line x1="0" y1="0" x2="-491" y2="20"/><line x1="0" y1="0" x2="-476" y2="20"/><line x1="0" y1="0" x2="-461" y2="20"/><line x1="0" y1="0" x2="191" y2="20"/><line x1="0" y1="0" x2="209" y2="20"/><line x1="0" y1="0" x2="227" y2="20"/><g transform="translate(0,20)"><line x1="0" y1="0" x2="0" y2="20"/><line x1="0" y1="0" x2="-434" y2="20"/><line x1="0" y1="0" x2="-404" y2="20"/><line x1="0" y1="0" x2="-365" y2="20"/><line x1="0" y1="0" x2="-314" y2="20"/><line x1="0" y1="0" x2="164" y2="20"/><g transform="translate(0,20)"><line x1="0" y1="0" x2="0" y2="20"/><line x1="0" y1="0" x2="-230" y2="20"/><line x1="0" y1="0" x2="-140" y2="20"/><line x1="0" y1="0" x2="-56" y2="20"/><line x1="0" y1="0" x2="80" y2="20"/><g transform="translate(0,20)"><g fill="#f00"><circle r="3"/></g></g><g transform="translate(-230,20)"><line x1="0" y1="0" x2="-45" y2="20"/><line x1="0" y1="0" x2="0" y2="20"/><line x1="0" y1="0" x2="39" y2="20"/><g transform="translate(-45,20)"><line x1="0" y1="0" x2="-15" y2="20"/><line x1="0" y1="0" x2="0" y2="20"/><line x1="0" y1="0" x2="18" y2="20"/><g transform="translate(-15,20)"><line x1="0" y1="0" x2="-3" y2="20"/><line x1="0" y1="0" x2="3" y2="20"/><g transform="translate(-3,20)"><g fill="#00f"><rect x="-2" y="-2" width="4" height="4"/></g></g><g transform="translate(3,20)"><g fill="#00f"><rect x="-2" y="-2" width="4" height="4"/></g></g><g fill="#0f0"><circle r="3"/></g></g><g transform="translate(0,20)"><line x1="0" y1="0" x2="-6" y2="20"/><line x1="0" y1="0" x2="0" y2="20"/><line x1="0" y1="0" x2="6" y2="20"/><g transform="translate(-6,20)"><g fill="#00f"><rect x="-2" y="-2" width="4" height="4"/></g></g><g transform="translate(0,20)"><g fill="#00f"><rect x="-2" y="-2" width="4" height="4"/></g></g><g transform="translate(6,20)"><g fill="#00f"><rect x="-2" y="-2" width="4" height="4"/></g></g><g fill="#0f0"><circle r="3"/></g></g><g transform="translate(18,20)"><line x1="0" y1="0" x2="-6" y2="20"/><line x1="0" y1="0" x2="0" y2="20"/><line x1="0" y1="0" x2="6" y2="20"/><g transform="translate(-6,20)"><g fill="#00f"><rect x="-2" y="-2" width="4" height="4"/></g></g><g transform="translate(0,20)"><g fill="#00f"><rect x="-2" y="-2" width="4" height="4"/></g></g><g transform="translate(6,20)"><g fill="#00f"><rect x="-2" y="-2" width="4" height="4"/></g></g><g fill="#0f0"><circle r="3"/></g></g><g fill="#0f0"><circle r="3"/></g></g><g transform="translate(0,20)"><line x1="0" y1="0" x2="-9" y2="20"/><line x1="0" y1="0" x2="6" y2="20"/><g transform="translate(-9,20)"><line x1="0" y1="0" x2="-6" y2="20"/><line x1="0" y1="0" x2="0" y2="20"/><line x1="0" y1="0" x2="6" y2="20"/><g transform="translate(-6,20)"><g fill="#00f"><rect x="-2" y="-2" width="4" height="4"/></g></g><g transform="translate(0,20)"><g fill="#00f"><rect x="-2" y="-2" width="4" height="4"/></g></g><g transform="translate(6,20)"><g fill="#00f"><rect x="-2" y="-2" width="4" height="4"/></g></g><g fill="#0f0"><circle r="3"/></g></g><g transform="translate(6,20)"><line x1="0" y1="0" x2="-3" y2="20"/><line x1="0" y1="0" x2="3" y2="20"/><g transform="translate(-3,20)"><g fill="#00f"><rect x="-2" y="-2" width="4" height="4"/></g></g><g transform="translate(3,20)"><g fill="#00f"><rect x="-2" y="-2" width="4" height="4"/></g></g><g fill="#0f0"><circle r="3"/></g></g><g fill="#0f0"><circle r="3"/></g></g><g transform="translate(39,20)"><line x1="0" y1="0" x2="-18" y2="20"/><line x1="0" y1="0" x2="0" y2="20"/><line x1="0" y1="0" x2="18" y2="20"/><g transform="translate(-18,20)"><line x1="0" y1="0" x2="-6" y2="20"/><line x1="0" y1="0" x2="0" y2="20"/><line x1="0" y1="0" x2="6" y2="20"/><g transform="translate(-6,20)"><g fill="#00f"><rect x="-2" y="-2" width="4" height="4"/></g></g><g transform="translate(0,20)"><g fill="#00f"><rect x="-2" y="-2" width="4" height="4"/></g></g><g transform="translate(6,20)"><g fill="#00f"><rect x="-2" y="-2" width="4" height="4"/></g></g><g fill="#0f0"><circle r="3"/></g></g><g transform="translate(0,20)"><line x1="0" y1="0" x2="-6" y2="20"/><line x1="0" y1="0" x2="0" y2="20"/><line x1="0" y1="0" x2="6" y2="20"/><g transform="translate(-6,20)"><g fill="#00f"><rect x="-2" y="-2" width="4" height="4"/></g></g><g transform="translate(0,20)"><g fill="#00f"><rect x="-2" y="-2" width="4" height="4"/></g></g><g transform="translate(6,20)"><g fill="#00f"><rect x="-2" y="-2" width="4" height="4"/></g></g><g fill="#0f0"><circle r="3"/></g></g><g transform="translate(18,20)"><line x1="0" y1="0" x2="-6" y2="20"/><line x1="0" y1="0" x2="0" y2="20"/><line x1="0" y1="0" x2="6" y2="20"/><g transform="translate(-6,20)"><g fill="#00f"><rect x="-2" y="-2" width="4" height="4"/></g></g><g transform="translate(0,20)"><g fill="#00f"><rect x="-2" y="-2" width="4" height="4"/></g></g><g transform="translate(6,20)"><g fill="#00f"><rect x="-2" y="-2" width="4" height="4"/></g></g><g fill="#0f0"><circle r="3"/></g></g><g fill="#0f0"><circle r="3"/></g></g><g fill="#0f0"><circle r="3"/></g></g><g transform="translate(-140,20)"><line x1="0" y1="0" x2="-12" y2="20"/><line x1="0" y1="0" x2="18" y2="20"/><g transform="translate(-12,20)"><line x1="0" y1="0" x2="-6" y2="20"/><line x1="0" y1="0" x2="6" y2="20"/><g transform="translate(-6,20)"><line x1="0" y1="0" x2="-3" y2="20"/><line x1="0" y1="0" x2="3" y2="20"/><g transform="translate(-3,20)"><g fill="#00f"><rect x="-2" y="-2" width="4" height="4"/></g></g><g transform="translate(3,20)"><g fill="#00f"><rect x="-2" y="-2" width="4" height="4"/></g></g><g fill="#0f0"><circle r="3"/></g></g><g transform="translate(6,20)"><line x1="0" y1="0" x2="-3" y2="20"/><line x1="0" y1="0" x2="3" y2="20"/><g transform="translate(-3,20)"><g fill="#00f"><rect x="-2" y="-2" width="4" height="4"/></g></g><g transform="translate(3,20)"><g fill="#00f"><rect x="-2" y="-2" width="4" height="4"/></g></g><g fill="#0f0"><circle r="3"/></g></g><g fill="#0f0"><circle r="3"/></g></g><g transform="translate(18,20)"><line x1="0" y1="0" x2="-9" y2="20"/><line x1="0" y1="0" x2="9" y2="20"/><g transform="translate(-9,20)"><line x1="0" y1="0" x2="-6" y2="20"/><line x1="0" y1="0" x2="0" y2="20"/><line x1="0" y1="0" x2="6" y2="20"/><g transform="translate(-6,20)"><g fill="#00f"><rect x="-2" y="-2" width="4" height="4"/></g></g><g transform="translate(0,20)"><g fill="#00f"><rect x="-2" y="-2" width="4" height="4"/></g></g><g transform="translate(6,20)"><g fill="#00f"><rect x="-2" y="-2" width="4" height="4"/></g></g><g fill="#0f0"><circle r="3"/></g></g><g transform="translate(9,20)"><line x1="0" y1="0" x2="-6" y2="20"/><line x1="0" y1="0" x2="0" y2="20"/><line x1="0" y1="0" x2="6" y2="20"/><g transform="translate(-6,20)"><g fill="#00f"><rect x="-2" y="-2" width="4" height="4"/></g></g><g transform="translate(0,20)"><g fill="#00f"><rect x="-2" y="-2" width="4" height="4"/></g></g><g transform="translate(6,20)"><g fill="#00f"><rect x="-2" y="-2" width="4" height="4"/></g></g><g fill="#0f0"><circle r="3"/></g></g><g fill="#0f0"><circle r="3"/></g></g><g fill="#0f0"><circle r="3"/></g></g><g transform="translate(-56,20)"><line x1="0" y1="0" x2="-30" y2="20"/><line x1="0" y1="0" x2="0" y2="20"/><line x1="0" y1="0" x2="30" y2="20"/><g transform="translate(-30,20)"><line x1="0" y1="0" x2="-9" y2="20"/><line x1="0" y1="0" x2="6" y2="20"/><g transform="translate(-9,20)"><line x1="0" y1="0" x2="-6" y2="20"/><line x1="0" y1="0" x2="0" y2="20"/><line x1="0" y1="0" x2="6" y2="20"/><g transform="translate(-6,20)"><g fill="#00f"><rect x="-2" y="-2" width="4" height="4"/></g></g><g transform="translate(0,20)"><g fill="#00f"><rect x="-2" y="-2" width="4" height="4"/></g></g><g transform="translate(6,20)"><g fill="#00f"><rect x="-2" y="-2" width="4" height="4"/></g></g><g fill="#0f0"><circle r="3"/></g></g><g transform="translate(6,20)"><line x1="0" y1="0" x2="-3" y2="20"/><line x1="0" y1="0" x2="3" y2="20"/><g transform="translate(-3,20)"><g fill="#00f"><rect x="-2" y="-2" width="4" height="4"/></g></g><g transform="translate(3,20)"><g fill="#00f"><rect x="-2" y="-2" width="4" height="4"/></g></g><g fill="#0f0"><circle r="3"/></g></g><g fill="#0f0"><circle r="3"/></g></g><g transform="translate(0,20)"><line x1="0" y1="0" x2="-9" y2="20"/><line x1="0" y1="0" x2="6" y2="20"/><g transform="translate(-9,20)"><line x1="0" y1="0" x2="-6" y2="20"/><line x1="0" y1="0" x2="0" y2="20"/><line x1="0" y1="0" x2="6" y2="20"/><g transform="translate(-6,20)"><g fill="#00f"><rect x="-2" y="-2" width="4" height="4"/></g></g><g transform="translate(0,20)"><g fill="#00f"><rect x="-2" y="-2" width="4" height="4"/></g></g><g transform="translate(6,20)"><g fill="#00f"><rect x="-2" y="-2" width="4" height="4"/></g></g><g fill="#0f0"><circle r="3"/></g></g><g transform="translate(6,20)"><line x1="0" y1="0" x2="-3" y2="20"/><line x1="0" y1="0" x2="3" y2="20"/><g transform="translate(-3,20)"><g fill="#00f"><rect x="-2" y="-2" width="4" height="4"/></g></g><g transform="translate(3,20)"><g fill="#00f"><rect x="-2" y="-2" width="4" height="4"/></g></g><g fill="#0f0"><circle r="3"/></g></g><g fill="#0f0"><circle r="3"/></g></g><g transform="translate(30,20)"><line x1="0" y1="0" x2="-12" y2="20"/><line x1="0" y1="0" x2="0" y2="20"/><line x1="0" y1="0" x2="12" y2="20"/><g transform="translate(-12,20)"><line x1="0" y1="0" x2="-3" y2="20"/><line x1="0" y1="0" x2="3" y2="20"/><g transform="translate(-3,20)"><g fill="#00f"><rect x="-2" y="-2" width="4" height="4"/></g></g><g transform="translate(3,20)"><g fill="#00f"><rect x="-2" y="-2" width="4" height="4"/></g></g><g fill="#0f0"><circle r="3"/></g></g><g transform="translate(0,20)"><line x1="0" y1="0" x2="-3" y2="20"/><line x1="0" y1="0" x2="3" y2="20"/><g transform="translate(-3,20)"><g fill="#00f"><rect x="-2" y="-2" width="4" height="4"/></g></g><g transform="translate(3,20)"><g fill="#00f"><rect x="-2" y="-2" width="4" height="4"/></g></g><g fill="#0f0"><circle r="3"/></g></g><g transform="translate(12,20)"><line x1="0" y1="0" x2="-3" y2="20"/><line x1="0" y1="0" x2="3" y2="20"/><g transform="translate(-3,20)"><g fill="#00f"><rect x="-2" y="-2" width="4" height="4"/></g></g><g transform="translate(3,20)"><g fill="#00f"><rect x="-2" y="-2" width="4" height="4"/></g></g><g fill="#0f0"><circle r="3"/></g></g><g fill="#0f0"><circle r="3"/></g></g><g fill="#0f0"><circle r="3"/></g></g><g transform="translate(80,20)"><line x1="0" y1="0" x2="-45" y2="20"/><line x1="0" y1="0" x2="0" y2="20"/><line x1="0" y1="0" x2="48" y2="20"/><g transform="translate(-45,20)"><line x1="0" y1="0" x2="-18" y2="20"/><line x1="0" y1="0" x2="0" y2="20"/><line x1="0" y1="0" x2="18" y2="20"/><g transform="translate(-18,20)"><line x1="0" y1="0" x2="-6" y2="20"/><line x1="0" y1="0" x2="0" y2="20"/><line x1="0" y1="0" x2="6" y2="20"/><g transform="translate(-6,20)"><g fill="#00f"><rect x="-2" y="-2" width="4" height="4"/></g></g><g transform="translate(0,20)"><g fill="#00f"><rect x="-2" y="-2" width="4" height="4"/></g></g><g transform="translate(6,20)"><g fill="#00f"><rect x="-2" y="-2" width="4" height="4"/></g></g><g fill="#0f0"><circle r="3"/></g></g><g transform="translate(0,20)"><line x1="0" y1="0" x2="-6" y2="20"/><line x1="0" y1="0" x2="0" y2="20"/><line x1="0" y1="0" x2="6" y2="20"/><g transform="translate(-6,20)"><g fill="#00f"><rect x="-2" y="-2" width="4" height="4"/></g></g><g transform="translate(0,20)"><g fill="#00f"><rect x="-2" y="-2" width="4" height="4"/></g></g><g transform="translate(6,20)"><g fill="#00f"><rect x="-2" y="-2" width="4" height="4"/></g></g><g fill="#0f0"><circle r="3"/></g></g><g transform="translate(18,20)"><line x1="0" y1="0" x2="-6" y2="20"/><line x1="0" y1="0" x2="0" y2="20"/><line x1="0" y1="0" x2="6" y2="20"/><g transform="translate(-6,20)"><g fill="#00f"><rect x="-2" y="-2" width="4" height="4"/></g></g><g transform="translate(0,20)"><g fill="#00f"><rect x="-2" y="-2" width="4" height="4"/></g></g><g transform="translate(6,20)"><g fill="#00f"><rect x="-2" y="-2" width="4" height="4"/></g></g><g fill="#0f0"><circle r="3"/></g></g><g fill="#0f0"><circle r="3"/></g></g><g transform="translate(0,20)"><line x1="0" y1="0" x2="-12" y2="20"/><line x1="0" y1="0" x2="0" y2="20"/><line x1="0" y1="0" x2="15" y2="20"/><g transform="translate(-12,20)"><line x1="0" y1="0" x2="-3" y2="20"/><line x1="0" y1="0" x2="3" y2="20"/><g transform="translate(-3,20)"><g fill="#00f"><rect x="-2" y="-2" width="4" height="4"/></g></g><g transform="translate(3,20)"><g fill="#00f"><rect x="-2" y="-2" width="4" height="4"/></g></g><g fill="#0f0"><circle r="3"/></g></g><g transform="translate(0,20)"><line x1="0" y1="0" x2="-3" y2="20"/><line x1="0" y1="0" x2="3" y2="20"/><g transform="translate(-3,20)"><g fill="#00f"><rect x="-2" y="-2" width="4" height="4"/></g></g><g transform="translate(3,20)"><g fill="#00f"><rect x="-2" y="-2" width="4" height="4"/></g></g><g fill="#0f0"><circle r="3"/></g></g><g transform="translate(15,20)"><line x1="0" y1="0" x2="-6" y2="20"/><line x1="0" y1="0" x2="0" y2="20"/><line x1="0" y1="0" x2="6" y2="20"/><g transform="translate(-6,20)"><g fill="#00f"><rect x="-2" y="-2" width="4" height="4"/></g></g><g transform="translate(0,20)"><g fill="#00f"><rect x="-2" y="-2" width="4" height="4"/></g></g><g transform="translate(6,20)"><g fill="#00f"><rect x="-2" y="-2" width="4" height="4"/></g></g><g fill="#0f0"><circle r="3"/></g></g><g fill="#0f0"><circle r="3"/></g></g><g transform="translate(48,20)"><line x1="0" y1="0" x2="-15" y2="20"/><line x1="0" y1="0" x2="0" y2="20"/><line x1="0" y1="0" x2="12" y2="20"/><g transform="translate(-15,20)"><line x1="0" y1="0" x2="-6" y2="20"/><line x1="0" y1="0" x2="0" y2="20"/><line x1="0" y1="0" x2="6" y2="20"/><g transform="translate(-6,20)"><g fill="#00f"><rect x="-2" y="-2" width="4" height="4"/></g></g><g transform="translate(0,20)"><g fill="#00f"><rect x="-2" y="-2" width="4" height="4"/></g></g><g transform="translate(6,20)"><g fill="#00f"><rect x="-2" y="-2" width="4" height="4"/></g></g><g fill="#0f0"><circle r="3"/></g></g><g transform="translate(0,20)"><line x1="0" y1="0" x2="-3" y2="20"/><line x1="0" y1="0" x2="3" y2="20"/><g transform="translate(-3,20)"><g fill="#00f"><rect x="-2" y="-2" width="4" height="4"/></g></g><g transform="translate(3,20)"><g fill="#00f"><rect x="-2" y="-2" width="4" height="4"/></g></g><g fill="#0f0"><circle r="3"/></g></g><g transform="translate(12,20)"><line x1="0" y1="0" x2="-3" y2="20"/><line x1="0" y1="0" x2="3" y2="20"/><g transform="translate(-3,20)"><g fill="#00f"><rect x="-2" y="-2" width="4" height="4"/></g></g><g transform="translate(3,20)"><g fill="#00f"><rect x="-2" y="-2" width="4" height="4"/></g></g><g fill="#0f0"><circle r="3"/></g></g><g fill="#0f0"><circle r="3"/></g></g><g fill="#0f0"><circle r="3"/></g></g><g fill="#f00"><circle r="3"/></g></g><g transform="translate(-434,20)"><line x1="0" y1="0" x2="-9" y2="20"/><line x1="0" y1="0" x2="9" y2="20"/><g transform="translate(-9,20)"><line x1="0" y1="0" x2="-6" y2="20"/><line x1="0" y1="0" x2="0" y2="20"/><line x1="0" y1="0" x2="6" y2="20"/><g transform="translate(-6,20)"><g fill="#00f"><rect x="-2" y="-2" width="4" height="4"/></g></g><g transform="translate(0,20)"><g fill="#00f"><rect x="-2" y="-2" width="4" height="4"/></g></g><g transform="translate(6,20)"><g fill="#00f"><rect x="-2" y="-2" width="4" height="4"/></g></g><g fill="#0f0"><circle r="3"/></g></g><g transform="translate(9,20)"><line x1="0" y1="0" x2="-6" y2="20"/><line x1="0" y1="0" x2="0" y2="20"/><line x1="0" y1="0" x2="6" y2="20"/><g transform="translate(-6,20)"><g fill="#00f"><rect x="-2" y="-2" width="4" height="4"/></g></g><g transform="translate(0,20)"><g fill="#00f"><rect x="-2" y="-2" width="4" height="4"/></g></g><g transform="translate(6,20)"><g fill="#00f"><rect x="-2" y="-2" width="4" height="4"/></g></g><g fill="#0f0"><circle r="3"/></g></g><g fill="#0f0"><circle r="3"/></g></g><g transform="translate(-404,20)"><line x1="0" y1="0" x2="-6" y2="20"/><line x1="0" y1="0" x2="6" y2="20"/><g transform="translate(-6,20)"><line x1="0" y1="0" x2="-3" y2="20"/><line x1="0" y1="0" x2="3" y2="20"/><g transform="translate(-3,20)"><g fill="#00f"><rect x="-2" y="-2" width="4" height="4"/></g></g><g transform="translate(3,20)"><g fill="#00f"><rect x="-2" y="-2" width="4" height="4"/></g></g><g fill="#0f0"><circle r="3"/></g></g><g transform="translate(6,20)"><line x1="0" y1="0" x2="-3" y2="20"/><line x1="0" y1="0" x2="3" y2="20"/><g transform="translate(-3,20)"><g fill="#00f"><rect x="-2" y="-2" width="4" height="4"/></g></g><g transform="translate(3,20)"><g fill="#00f"><rect x="-2" y="-2" width="4" height="4"/></g></g><g fill="#0f0"><circle r="3"/></g></g><g fill="#0f0"><circle r="3"/></g></g><g transform="translate(-365,20)"><line x1="0" y1="0" x2="-18" y2="20"/><line x1="0" y1="0" x2="0" y2="20"/><line x1="0" y1="0" x2="18" y2="20"/><g transform="translate(-18,20)"><line x1="0" y1="0" x2="-6" y2="20"/><line x1="0" y1="0" x2="0" y2="20"/><line x1="0" y1="0" x2="6" y2="20"/><g transform="translate(-6,20)"><g fill="#00f"><rect x="-2" y="-2" width="4" height="4"/></g></g><g transform="translate(0,20)"><g fill="#00f"><rect x="-2" y="-2" width="4" height="4"/></g></g><g transform="translate(6,20)"><g fill="#00f"><rect x="-2" y="-2" width="4" height="4"/></g></g><g fill="#0f0"><circle r="3"/></g></g><g transform="translate(0,20)"><line x1="0" y1="0" x2="-6" y2="20"/><line x1="0" y1="0" x2="0" y2="20"/><line x1="0" y1="0" x2="6" y2="20"/><g transform="translate(-6,20)"><g fill="#00f"><rect x="-2" y="-2" width="4" height="4"/></g></g><g transform="translate(0,20)"><g fill="#00f"><rect x="-2" y="-2" width="4" height="4"/></g></g><g transform="translate(6,20)"><g fill="#00f"><rect x="-2" y="-2" width="4" height="4"/></g></g><g fill="#0f0"><circle r="3"/></g></g><g transform="translate(18,20)"><line x1="0" y1="0" x2="-6" y2="20"/><line x1="0" y1="0" x2="0" y2="20"/><line x1="0" y1="0" x2="6" y2="20"/><g transform="translate(-6,20)"><g fill="#00f"><rect x="-2" y="-2" width="4" height="4"/></g></g><g transform="translate(0,20)"><g fill="#00f"><rect x="-2" y="-2" width="4" height="4"/></g></g><g transform="translate(6,20)"><g fill="#00f"><rect x="-2" y="-2" width="4" height="4"/></g></g><g fill="#0f0"><circle r="3"/></g></g><g fill="#0f0"><circle r="3"/></g></g><g transform="translate(-314,20)"><line x1="0" y1="0" x2="-15" y2="20"/><line x1="0" y1="0" x2="0" y2="20"/><line x1="0" y1="0" x2="12" y2="20"/><g transform="translate(-15,20)"><line x1="0" y1="0" x2="-6" y2="20"/><line x1="0" y1="0" x2="0" y2="20"/><line x1="0" y1="0" x2="6" y2="20"/><g transform="translate(-6,20)"><g fill="#00f"><rect x="-2" y="-2" width="4" height="4"/></g></g><g transform="translate(0,20)"><g fill="#00f"><rect x="-2" y="-2" width="4" height="4"/></g></g><g transform="translate(6,20)"><g fill="#00f"><rect x="-2" y="-2" width="4" height="4"/></g></g><g fill="#0f0"><circle r="3"/></g></g><g transform="translate(0,20)"><line x1="0" y1="0" x2="-3" y2="20"/><line x1="0" y1="0" x2="3" y2="20"/><g transform="translate(-3,20)"><g fill="#00f"><rect x="-2" y="-2" width="4" height="4"/></g></g><g transform="translate(3,20)"><g fill="#00f"><rect x="-2" y="-2" width="4" height="4"/></g></g><g fill="#0f0"><circle r="3"/></g></g><g transform="translate(12,20)"><line x1="0" y1="0" x2="-3" y2="20"/><line x1="0" y1="0" x2="3" y2="20"/><g transform="translate(-3,20)"><g fill="#00f"><rect x="-2" y="-2" width="4" height="4"/></g></g><g transform="translate(3,20)"><g fill="#00f"><rect x="-2" y="-2" width="4" height="4"/></g></g><g fill="#0f0"><circle r="3"/></g></g><g fill="#0f0"><circle r="3"/></g></g><g transform="translate(164,20)"><line x1="0" y1="0" x2="-12" y2="20"/><line x1="0" y1="0" x2="0" y2="20"/><line x1="0" y1="0" x2="12" y2="20"/><g transform="translate(-12,20)"><line x1="0" y1="0" x2="-3" y2="20"/><line x1="0" y1="0" x2="3" y2="20"/><g transform="translate(-3,20)"><g fill="#00f"><rect x="-2" y="-2" width="4" height="4"/></g></g><g transform="translate(3,20)"><g fill="#00f"><rect x="-2" y="-2" width="4" height="4"/></g></g><g fill="#0f0"><circle r="3"/></g></g><g transform="translate(0,20)"><line x1="0" y1="0" x2="-3" y2="20"/><line x1="0" y1="0" x2="3" y2="20"/><g transform="translate(-3,20)"><g fill="#00f"><rect x="-2" y="-2" width="4" height="4"/></g></g><g transform="translate(3,20)"><g fill="#00f"><rect x="-2" y="-2" width="4" height="4"/></g></g><g fill="#0f0"><circle r="3"/></g></g><g transform="translate(12,20)"><line x1="0" y1="0" x2="-3" y2="20"/><line x1="0" y1="0" x2="3" y2="20"/><g transform="translate(-3,20)"><g fill="#00f"><rect x="-2" y="-2" width="4" height="4"/></g></g><g transform="translate(3,20)"><g fill="#00f"><rect x="-2" y="-2" width="4" height="4"/></g></g><g fill="#0f0"><circle r="3"/></g></g><g fill="#0f0"><circle r="3"/></g></g><g fill="#f00"><circle r="3"/></g></g><g transform="translate(-509,20)"><line x1="0" y1="0" x2="-6" y2="20"/><line x1="0" y1="0" x2="0" y2="20"/><line x1="0" y1="0" x2="6" y2="20"/><g transform="translate(-6,20)"><g fill="#00f"><rect x="-2" y="-2" width="4" height="4"/></g></g><g transform="translate(0,20)"><g fill="#00f"><rect x="-2" y="-2" width="4" height="4"/></g></g><g transform="translate(6,20)"><g fill="#00f"><rect x="-2" y="-2" width="4" height="4"/></g></g><g fill="#0f0"><circle r="3"/></g></g><g transform="translate(-491,20)"><line x1="0" y1="0" x2="-6" y2="20"/><line x1="0" y1="0" x2="0" y2="20"/><line x1="0" y1="0" x2="6" y2="20"/><g transform="translate(-6,20)"><g fill="#00f"><rect x="-2" y="-2" width="4" height="4"/></g></g><g transform="translate(0,20)"><g fill="#00f"><rect x="-2" y="-2" width="4" height="4"/></g></g><g transform="translate(6,20)"><g fill="#00f"><rect x="-2" y="-2" width="4" height="4"/></g></g><g fill="#0f0"><circle r="3"/></g></g><g transform="translate(-476,20)"><line x1="0" y1="0" x2="-3" y2="20"/><line x1="0" y1="0" x2="3" y2="20"/><g transform="translate(-3,20)"><g fill="#00f"><rect x="-2" y="-2" width="4" height="4"/></g></g><g transform="translate(3,20)"><g fill="#00f"><rect x="-2" y="-2" width="4" height="4"/></g></g><g fill="#0f0"><circle r="3"/></g></g><g transform="translate(-461,20)"><line x1="0" y1="0" x2="-6" y2="20"/><line x1="0" y1="0" x2="0" y2="20"/><line x1="0" y1="0" x2="6" y2="20"/><g transform="translate(-6,20)"><g fill="#00f"><rect x="-2" y="-2" width="4" height="4"/></g></g><g transform="translate(0,20)"><g fill="#00f"><rect x="-2" y="-2" width="4" height="4"/></g></g><g transform="translate(6,20)"><g fill="#00f"><rect x="-2" y="-2" width="4" height="4"/></g></g><g fill="#0f0"><circle r="3"/></g></g><g transform="translate(191,20)"><line x1="0" y1="0" x2="-6" y2="20"/><line x1="0" y1="0" x2="0" y2="20"/><line x1="0" y1="0" x2="6" y2="20"/><g transform="translate(-6,20)"><g fill="#00f"><rect x="-2" y="-2" width="4" height="4"/></g></g><g transform="translate(0,20)"><g fill="#00f"><rect x="-2" y="-2" width="4" height="4"/></g></g><g transform="translate(6,20)"><g fill="#00f"><rect x="-2" y="-2" width="4" height="4"/></g></g><g fill="#0f0"><circle r="3"/></g></g><g transform="translate(209,20)"><line x1="0" y1="0" x2="-6" y2="20"/><line x1="0" y1="0" x2="0" y2="20"/><line x1="0" y1="0" x2="6" y2="20"/><g transform="translate(-6,20)"><g fill="#00f"><rect x="-2" y="-2" width="4" height="4"/></g></g><g transform="translate(0,20)"><g fill="#00f"><rect x="-2" y="-2" width="4" height="4"/></g></g><g transform="translate(6,20)"><g fill="#00f"><rect x="-2" y="-2" width="4" height="4"/></g></g><g fill="#0f0"><circle r="3"/></g></g><g transform="translate(227,20)"><line x1="0" y1="0" x2="-6" y2="20"/><line x1="0" y1="0" x2="0" y2="20"/><line x1="0" y1="0" x2="6" y2="20"/><g transform="translate(-6,20)"><g fill="#00f"><rect x="-2" y="-2" width="4" height="4"/></g></g><g transform="translate(0,20)"><g fill="#00f"><rect x="-2" y="-2" width="4" height="4"/></g></g><g transform="translate(6,20)"><g fill="#00f"><rect x="-2" y="-2" width="4" height="4"/></g></g><g fill="#0f0"><circle r="3"/></g></g><g fill="#f00"><circle r="3"/></g></g><g transform="translate(-533,20)"><g fill="#00f"><rect x="-2" y="-2" width="4" height="4"/></g></g><g transform="translate(-527,20)"><g fill="#00f"><rect x="-2" y="-2" width="4" height="4"/></g></g><g transform="translate(-521,20)"><g fill="#00f"><rect x="-2" y="-2" width="4" height="4"/></g></g><g transform="translate(239,20)"><g fill="#00f"><rect x="-2" y="-2" width="4" height="4"/></g></g><g transform="translate(245,20)"><g fill="#00f"><rect x="-2" y="-2" width="4" height="4"/></g></g><g fill="#f00"><circle r="3"/></g></g></g></svg>
