<?xml version="1.0" encoding="US-ASCII" standalone="no"?>
<!DOCTYPE svg PUBLIC "-//W3C//DTD SVG 1.1//EN"
  "http://www.w3.org/Graphics/SVG/1.1/DTD/svg11.dtd">
<svg width="258" height="128" xmlns="http://www.w3.org/2000/svg" version="1.1"><g stroke="black" stroke-width="1"><g transform="translate(132,14)"><line x1="0" y1="0" x2="0" y2="20"/><line x1="0" y1="0" x2="-119" y2="20"/><line x1="0" y1="0" x2="-113" y2="20"/><line x1="0" y1="0" x2="-107" y2="20"/><line x1="0" y1="0" x2="-101" y2="20"/><line x1="0" y1="0" x2="95" y2="20"/><line x1="0" y1="0" x2="101" y2="20"/><line x1="0" y1="0" x2="107" y2="20"/><line x1="0" y1="0" x2="113" y2="20"/><g transform="translate(0,20)"><line x1="0" y1="0" x2="0" y2="20"/><line x1="0" y1="0" x2="-89" y2="20"/><line x1="0" y1="0" x2="41" y2="20"/><line x1="0" y1="0" x2="56" y2="20"/><line x1="0" y1="0" x2="71" y2="20"/><line x1="0" y1="0" x2="86" y2="20"/><g transform="translate(0,20)"><line x1="0" y1="0" x2="0" y2="20"/><line x1="0" y1="0" x2="-62" y2="20"/><line x1="0" y1="0" x2="-20" y2="20"/><line x1="0" y1="0" x2="20" y2="20"/><g transform="translate(0,20)"><g fill="#f00"><circle r="3"/></g></g><g transform="translate(-62,20)"><line x1="0" y1="0" x2="-12" y2="20"/><line x1="0" y1="0" x2="0" y2="20"/><line x1="0" y1="0" x2="15" y2="20"/><g transform="translate(-12,20)"><line x1="0" y1="0" x2="-3" y2="20"/><line x1="0" y1="0" x2="3" y2="20"/><g transform="translate(-3,20)"><g fill="#00f"><rect x="-2" y="-2" width="4" height="4"/></g></g><g transform="translate(3,20)"><g fill="#00f"><rect x="-2" y="-2" width="4" height="4"/></g></g><g fill="#0f0"><circle r="3"/></g></g><g transform="translate(0,20)"><line x1="0" y1="0" x2="-3" y2="20"/><line x1="0" y1="0" x2="3" y2="20"/><g transform="translate(-3,20)"><g fill="#00f"><rect x="-2" y="-2" width="4" height="4"/></g></g><g transform="translate(3,20)"><g fill="#00f"><rect x="-2" y="-2" width="4" height="4"/></g></g><g fill="#0f0"><circle r="3"/></g></g><g transform="translate(15,20)"><line x1="0" y1="0" x2="-6" y2="20"/><line x1="0" y1="0" x2="0" y2="20"/><line x1="0" y1="0" x2="6" y2="20"/><g transform="translate(-6,20)"><g fill="#00f"><rect x="-2" y="-2" width="4" height="4"/></g></g><g transform="translate(0,20)"><g fill="#00f"><rect x="-2" y="-2" width="4" height="4"/></g></g><g transform="translate(6,20)"><g fill="#00f"><rect x="-2" y="-2" width="4" height="4"/></g></g><g fill="#0f0"><circle r="3"/></g></g><g fill="#0f0"><circle r="3"/></g></g><g transform="translate(-20,20)"><line x1="0" y1="0" x2="-9" y2="20"/><line x1="0" y1="0" x2="6" y2="20"/><g transform="translate(-9,20)"><line x1="0" y1="0" x2="-6" y2="20"/><line x1="0" y1="0" x2="0" y2="20"/><line x1="0" y1="0" x2="6" y2="20"/><g transform="translate(-6,20)"><g fill="#00f"><rect x="-2" y="-2" width="4" height="4"/></g></g><g transform="translate(0,20)"><g fill="#00f"><rect x="-2" y="-2" width="4" height="4"/></g></g><g transform="translate(6,20)"><g fill="#00f"><rect x="-2" y="-2" width="4" height="4"/></g></g><g fill="#0f0"><circle r="3"/></g></g><g transform="translate(6,20)"><line x1="0" y1="0" x2="-3" y2="20"/><line x1="0" y1="0" x2="3" y2="20"/><g transform="translate(-3,20)"><g fill="#00f"><rect x="-2" y="-2" width="4" height="4"/></g></g><g transform="translate(3,20)"><g fill="#00f"><rect x="-2" y="-2" width="4" height="4"/></g></g><g fill="#0f0"><circle r="3"/></g></g><g fill="#0f0"><circle r="3"/></g></g><g transform="translate(20,20)"><line x1="0" y1="0" x2="-6" y2="20"/><line x1="0" y1="0" x2="6" y2="20"/><g transform="translate(-6,20)"><line x1="0" y1="0" x2="-3" y2="20"/><line x1="0" y1="0" x2="3" y2="20"/><g transform="translate(-3,20)"><g fill="#00f"><rect x="-2" y="-2" width="4" height="4"/></g></g><g transform="translate(3,20)"><g fill="#00f"><rect x="-2" y="-2" width="4" height="4"/></g></g><g fill="#0f0"><circle r="3"/></g></g><g transform="translate(6,20)"><line x1="0" y1="0" x2="-3" y2="20"/><line x1="0" y1="0" x2="3" y2="20"/><g transform="translate(-3,20)"><g fill="#00f"><rect x="-2" y="-2" width="4" height="4"/></g></g><g transform="translate(3,20)"><g fill="#00f"><rect x="-2" y="-2" width="4" height="4"/></g></g><g fill="#0f0"><circle r="3"/></g></g><g fill="#0f0"><circle r="3"/></g></g><g fill="#f00"><circle r="3"/></g></g><g transform="translate(-89,20)"><line x1="0" y1="0" x2="-6" y2="20"/><line x1="0" y1="0" x2="0" y2="20"/><line x1="0" y1="0" x2="6" y2="20"/><g transform="translate(-6,20)"><g fill="#00f"><rect x="-2" y="-2" width="4" height="4"/></g></g><g transform="translate(0,20)"><g fill="#00f"><rect x="-2" y="-2" width="4" height="4"/></g></g><g transform="translate(6,20)"><g fill="#00f"><rect x="-2" y="-2" width="4" height="4"/></g></g><g fill="#0f0"><circle r="3"/></g></g><g transform="translate(41,20)"><line x1="0" y1="0" x2="-6" y2="20"/><line x1="0" y1="0" x2="0" y2="20"/><line x1="0" y1="0" x2="6" y2="20"/><g transform="translate(-6,20)"><g fill="#00f"><rect x="-2" y="-2" width="4" height="4"/></g></g><g transform="translate(0,20)"><g fill="#00f"><rect x="-2" y="-2" width="4" height="4"/></g></g><g transform="translate(6,20)"><g fill="#00f"><rect x="-2" y="-2" width="4" height="4"/></g></g><g fill="#0f0"><circle r="3"/></g></g><g transform="translate(56,20)"><line x1="0" y1="0" x2="-3" y2="20"/><line x1="0" y1="0" x2="3" y2="20"/><g transform="translate(-3,20)"><g fill="#00f"><rect x="-2" y="-2" width="4" height="4"/></g></g><g transform="translate(3,20)"><g fill="#00f"><rect x="-2" y="-2" width="4" height="4"/></g></g><g fill="#0f0"><circle r="3"/></g></g><g transform="translate(71,20)"><line x1="0" y1="0" x2="-6" y2="20"/><line x1="0" y1="0" x2="0" y2="20"/><line x1="0" y1="0" x2="6" y2="20"/><g transform="translate(-6,20)"><g fill="#00f"><rect x="-2" y="-2" width="4" height="4"/></g></g><g transform="translate(0,20)"><g fill="#00f"><rect x="-2" y="-2" width="4" height="4"/></g></g><g transform="translate(6,20)"><g fill="#00f"><rect x="-2" y="-2" width="4" height="4"/></g></g><g fill="#0f0"><circle r="3"/></g></g><g transform="translate(86,20)"><line x1="0" y1="0" x2="-3" y2="20"/><line x1="0" y1="0" x2="3" y2="20"/><g transform="translate(-3,20)"><g fill="#00f"><rect x="-2" y="-2" width="4" height="4"/></g></g><g transform="translate(3,20)"><g fill="#00f"><rect x="-2" y="-2" width="4" height="4"/></g></g><g fill="#0f0"><circle r="3"/></g></g><g fill="#f00"><circle r="3"/></g></g><g transform="translate(-119,20)"><g fill="#00f"><rect x="-2" y="-2" width="4" height="4"/></g></g><g transform="translate(-113,20)"><g fill="#00f"><rect x="-2" y="-2" width="4" height="4"/></g></g><g transform="translate(-107,20)"><g fill="#00f"><rect x="-2" y="-2" width="4" height="4"/></g></g><g transform="translate(-101,20)"><g fill="#00f"><rect x="-2" y="-2" width="4" height="4"/></g></g><g transform="translate(95,20)"><g fill="#00f"><rect x="-2" y="-2" width="4" height="4"/></g></g><g transform="translate(101,20)"><g fill="#00f"><rect x="-2" y="-2" width="4" height="4"/></g></g><g transform="translate(107,20)"><g fill="#00f"><rect x="-2" y="-2" width="4" height="4"/></g></g><g transform="translate(113,20)"><g fill="#00f"><rect x="-2" y="-2" width="4" height="4"/></g></g><g fill="#f00"><circle r="3"/></g></g></g></svg>
