<?xml version="1.0" encoding="US-ASCII" standalone="no"?>
<!DOCTYPE svg PUBLIC "-//W3C//DTD SVG 1.1//EN"
  "http://www.w3.org/Graphics/SVG/1.1/DTD/svg11.dtd">
<svg width="152" height="128" xmlns="http://www.w3.org/2000/svg" version="1.1"><g stroke="black" stroke-width="1"><g transform="translate(73,14)"><line x1="0" y1="0" x2="0" y2="20"/><line x1="0" y1="0" x2="-60" y2="20"/><line x1="0" y1="0" x2="-54" y2="20"/><line x1="0" y1="0" x2="60" y2="20"/><line x1="0" y1="0" x2="66" y2="20"/><g transform="translate(0,20)"><line x1="0" y1="0" x2="0" y2="20"/><line x1="0" y1="0" x2="-45" y2="20"/><line x1="0" y1="0" x2="-30" y2="20"/><line x1="0" y1="0" x2="33" y2="20"/><line x1="0" y1="0" x2="48" y2="20"/><g transform="translate(0,20)"><line x1="0" y1="0" x2="0" y2="20"/><g transform="translate(0,20)"><line x1="0" y1="0" x2="-15" y2="20"/><line x1="0" y1="0" x2="0" y2="20"/><line x1="0" y1="0" x2="18" y2="20"/><g transform="translate(-15,20)"><line x1="0" y1="0" x2="-3" y2="20"/><line x1="0" y1="0" x2="3" y2="20"/><g transform="translate(-3,20)"><g fill="#00f"><rect x="-2" y="-2" width="4" height="4"/></g></g><g transform="translate(3,20)"><g fill="#00f"><rect x="-2" y="-2" width="4" height="4"/></g></g><g fill="#0f0"><circle r="3"/></g></g><g transform="translate(0,20)"><line x1="0" y1="0" x2="-6" y2="20"/><line x1="0" y1="0" x2="0" y2="20"/><line x1="0" y1="0" x2="6" y2="20"/><g transform="translate(-6,20)"><g fill="#00f"><rect x="-2" y="-2" width="4" height="4"/></g></g><g transform="translate(0,20)"><g fill="#00f"><rect x="-2" y="-2" width="4" height="4"/></g></g><g transform="translate(6,20)"><g fill="#00f"><rect x="-2" y="-2" width="4" height="4"/></g></g><g fill="#0f0"><circle r="3"/></g></g><g transform="translate(18,20)"><line x1="0" y1="0" x2="-6" y2="20"/><line x1="0" y1="0" x2="0" y2="20"/><line x1="0" y1="0" x2="6" y2="20"/><g transform="translate(-6,20)"><g fill="#00f"><rect x="-2" y="-2" width="4" height="4"/></g></g><g transform="translate(0,20)"><g fill="#00f"><rect x="-2" y="-2" width="4" height="4"/></g></g><g transform="translate(6,20)"><g fill="#00f"><rect x="-2" y="-2" width="4" height="4"/></g></g><g fill="#0f0"><circle r="3"/></g></g><g fill="#0f0"><circle r="3"/></g></g><g fill="#f00"><circle r="3"/></g></g><g transform="translate(-45,20)"><line x1="0" y1="0" x2="-3" y2="20"/><line x1="0" y1="0" x2="3" y2="20"/><g transform="translate(-3,20)"><g fill="#00f"><rect x="-2" y="-2" width="4" height="4"/></g></g><g transform="translate(3,20)"><g fill="#00f"><rect x="-2" y="-2" width="4" height="4"/></g></g><g fill="#0f0"><circle r="3"/></g></g><g transform="translate(-30,20)"><line x1="0" y1="0" x2="-6" y2="20"/><line x1="0" y1="0" x2="0" y2="20"/><line x1="0" y1="0" x2="6" y2="20"/><g transform="translate(-6,20)"><g fill="#00f"><rect x="-2" y="-2" width="4" height="4"/></g></g><g transform="translate(0,20)"><g fill="#00f"><rect x="-2" y="-2" width="4" height="4"/></g></g><g transform="translate(6,20)"><g fill="#00f"><rect x="-2" y="-2" width="4" height="4"/></g></g><g fill="#0f0"><circle r="3"/></g></g><g transform="translate(33,20)"><line x1="0" y1="0" x2="-3" y2="20"/><line x1="0" y1="0" x2="3" y2="20"/><g transform="translate(-3,20)"><g fill="#00f"><rect x="-2" y="-2" width="4" height="4"/></g></g><g transform="translate(3,20)"><g fill="#00f"><rect x="-2" y="-2" width="4" height="4"/></g></g><g fill="#0f0"><circle r="3"/></g></g><g transform="translate(48,20)"><line x1="0" y1="0" x2="-6" y2="20"/><line x1="0" y1="0" x2="0" y2="20"/><line x1="0" y1="0" x2="6" y2="20"/><g transform="translate(-6,20)"><g fill="#00f"><rect x="-2" y="-2" width="4" height="4"/></g></g><g transform="translate(0,20)"><g fill="#00f"><rect x="-2" y="-2" width="4" height="4"/></g></g><g transform="translate(6,20)"><g fill="#00f"><rect x="-2" y="-2" width="4" height="4"/></g></g><g fill="#0f0"><circle r="3"/></g></g><g fill="#f00"><circle r="3"/></g></g><g transform="translate(-60,20)"><g fill="#00f"><rect x="-2" y="-2" width="4" height="4"/></g></g><g transform="translate(-54,20)"><g fill="#00f"><rect x="-2" y="-2" width="4" height="4"/></g></g><g transform="translate(60,20)"><g fill="#00f"><rect x="-2" y="-2" width="4" height="4"/></g></g><g transform="translate(66,20)"><g fill="#00f"><rect x="-2" y="-2" width="4" height="4"/></g></g><g fill="#f00"><circle r="3"/></g></g></g></svg>
